<svg width="24" height="24" viewBox="0 0 24 24" fill="none" xmlns="http://www.w3.org/2000/svg">
<path d="M10.3767 3.90338L2.31272 16.8246C1.47491 18.1386 2.41755 20 3.98846 20H20.0118C21.5827 20 22.5251 18.2481 21.6872 16.8246L13.6233 3.90338C12.8902 2.69887 11.2145 2.69887 10.3767 3.90338Z" fill="#E33D3D"/>
<path d="M11.3999 17.2002C11.1999 17.0002 11.0999 16.7001 11.0999 16.4001C11.0999 16.1001 11.1999 15.8001 11.3999 15.6001C11.5999 15.4001 11.9 15.3 12.2 15.3C12.5 15.3 12.8 15.4001 13 15.6001C13.2 15.8001 13.3 16.1001 13.3 16.4001C13.3 16.7001 13.2 17.0002 13 17.2002C12.8 17.4002 12.5 17.5 12.2 17.5C11.9 17.5 11.5999 17.4002 11.3999 17.2002ZM11.8999 9H12.3999C12.8999 9 13.2 9.40015 13.2 9.90015L12.8999 13.8C12.8999 14.2 12.4999 14.5 12.0999 14.5C11.6999 14.5 11.3 14.2 11.3 13.8L11 9.90015C11.1 9.40015 11.4999 9 11.8999 9Z" fill="white"/>
</svg>
