<svg id="icon-hand-document" width="33" height="46" xmlns="http://www.w3.org/2000/svg" xmlns:xlink="http://www.w3.org/1999/xlink"><defs><path id="a" d="M0 .564h19.33v28.709H0z"/></defs><g fill="none" fill-rule="evenodd"><g transform="translate(0 16.521)"><mask id="b" fill="#fff"><use xlink:href="#a"/></mask><path d="M16.277 29.273v-6.396s3.052-1.622 3.052-5.421v-3.052L8.646.564 2.053 5.773C.88 6.848 0 8.57 0 10.2v19.072h16.277z" fill="#BCB5FF" mask="url(#b)"/></g><path d="M11.53 32.521c.61 3.125-1.267 5.474-1.359 5.588a.43.43 0 00.664.546c.103-.125 2.16-2.69 1.566-6.134h-.87zM7.532 24.57c-2.16 2.118-4.098 4.012-4.098 4.012a.43.43 0 10.6.615s1.592-1.556 3.498-3.423v-1.203z" fill="#FFF"/><path d="M30.795 34.779l-21.119-.047a1.748 1.748 0 01-1.745-1.752l.066-31.234A1.75 1.75 0 019.749 0l21.12.047a1.748 1.748 0 011.745 1.751l-.066 31.235a1.749 1.749 0 01-1.753 1.746" fill="#352CA4"/><path fill="#7874E3" d="M15.487 29.546l-1.888-.004.006-3.182 1.888.004zM25.901 29.566l-1.097-.002.007-3.182 1.096.002zM28.348 29.571l-1.188-.003.007-3.182 1.186.003zM17.826 29.55l-1.462-.003.006-3.181 1.462.002zM21.139 29.557l-2.193-.005.006-3.181 2.194.004zM23.72 29.562l-1.461-.003.006-3.182 1.462.003z"/><path d="M3.454 29.722s7.522-7.354 9.447-9.28c1.925-1.925 4.123 2.785 2.293 5.499-.82 1.136-4.171 4.888-4.171 4.888 1.86 4.157-.94 7.553-.94 7.553" fill="#BCB5FF"/><path stroke="#BCB5FF" stroke-width="1.572" stroke-linecap="round" stroke-linejoin="round" d="M13.242 8.943h10.241M13.242 15.088h5.888"/></g></svg>