<svg width="49" height="48" viewBox="0 0 49 48" fill="none" xmlns="http://www.w3.org/2000/svg">
<g clip-path="url(#clip0)">
<path d="M23.7932 0.235324L0.471131 16.7059C-0.471177 17.1765 -2.327e-05 18.5883 1.17786 18.5883H48.0577C49 18.5883 49.4711 17.1765 48.7644 16.7059L25.2067 0.235324C24.5 2.96272e-05 24.0288 2.96272e-05 23.7932 0.235324Z" fill="#1D1875"/>
<path d="M12.0144 18.5883H4.71155V42.353H12.0144V18.5883Z" fill="#BDBAFD"/>
<path d="M28.0337 18.5883H20.7308V42.353H28.0337V18.5883Z" fill="#BDBAFD"/>
<path d="M44.0529 18.5883H36.75V42.353H44.0529V18.5883Z" fill="#BDBAFD"/>
<path d="M47.1154 48H1.88465C1.17792 48 0.471191 47.5294 0.471191 46.5883V43.5294C0.471191 42.8236 0.942345 42.1177 1.88465 42.1177H47.1154C47.8222 42.1177 48.5289 42.5883 48.5289 43.5294V46.5883C48.5289 47.2941 47.8222 48 47.1154 48Z" fill="#1D1875"/>
<path d="M26.3846 10.5882C26.1491 10.3529 25.6779 10.1176 24.9712 9.88232V7.76467C25.2067 7.76467 25.6779 7.99996 25.9135 8.23526C26.1491 8.47055 26.3846 8.47055 26.6202 8.23526C26.6202 8.23526 26.8558 7.99996 26.8558 7.76467C26.8558 7.76467 26.8558 7.52937 26.6202 7.29408C25.9135 7.05879 25.4423 7.05879 24.7356 6.82349C24.7356 6.5882 24.7356 6.5882 24.5 6.5882C24.2644 6.3529 24.0289 6.3529 23.7933 6.5882L23.5577 6.82349V7.05879C23.3221 6.82349 22.851 7.05879 22.6154 7.29408C22.1443 7.76467 21.9087 8.23526 21.9087 8.70585C21.9087 9.17643 22.1442 9.64702 22.3798 9.88232C22.6154 10.1176 23.0866 10.3529 23.7933 10.5882V12.7058C23.3221 12.7058 22.851 12.4706 22.3798 12C22.3798 11.7647 21.9087 11.7647 21.9087 12C21.9087 12 21.6731 12.2353 21.6731 12.4706C21.6731 12.7058 21.6731 12.7058 21.9087 12.9411C22.6154 13.4117 23.0866 13.647 23.7933 13.8823V14.3529C23.7933 14.5882 23.7933 14.5882 24.0289 14.5882L24.2644 14.8235C24.5 14.8235 24.5 14.8235 24.5 14.5882L24.7356 14.3529V13.647C25.2067 13.647 25.6779 13.4117 26.1491 13.1764C26.6202 12.7058 26.8558 12.4706 26.8558 11.7647C26.8558 11.2941 26.6202 10.8235 26.3846 10.5882ZM24.7356 10.8235C24.9712 10.8235 25.4423 11.0588 25.4423 11.2941C25.6779 11.5294 25.6779 11.5294 25.6779 11.7647C25.6779 12 25.6779 12.2353 25.4423 12.4706C25.2067 12.7058 24.9712 12.7058 24.7356 12.7058V10.8235ZM23.0866 9.17643C23.0866 9.17643 22.851 8.94114 22.851 8.70585C22.851 8.47055 22.851 8.23526 23.0866 7.99996C23.3221 7.76467 23.5577 7.76467 23.7933 7.76467V9.64702C23.5577 9.41173 23.3221 9.41173 23.0866 9.17643Z" fill="#BDBAFD"/>
</g>
<defs>
<clipPath id="clip0">
<rect width="49" height="48" fill="white"/>
</clipPath>
</defs>
</svg>
