<svg width="76" height="52" fill="none" xmlns="http://www.w3.org/2000/svg"><path fill-rule="evenodd" clip-rule="evenodd" d="M50.4214 1.05838c.7749-.78717 2.0412-.79713 2.8283-.02224l9.6737 9.52276 9.6737-9.52276c.7872-.77489 2.0534-.76493 2.8283.02224.7749.78716.765 2.05345-.0222 2.82834l-9.6289 9.47858 9.6289 9.4786c.7872.7749.7971 2.0412.0222 2.8284-.7749.7871-2.0411.7971-2.8283.0222l-9.6737-9.5227-9.6737 9.5227c-.7871.7749-2.0534.7649-2.8283-.0222-.7749-.7872-.7649-2.0535.0222-2.8284l9.6289-9.4786-9.6289-9.47858c-.7871-.77489-.7971-2.04118-.0222-2.82834Zm-7.9217 6.17233H4V47.5385h61.0769V33.6151c0-1.1046.8955-2 2-2 1.1046 0 2 .8954 2 2v14.1926c0 .9737-.3333 1.9406-1.0617 2.669-.7284.7285-1.6953 1.0618-2.669 1.0618H3.73077c-.97373 0-1.94058-.3333-2.66902-1.0618C.3333 49.7483 0 48.7814 0 47.8077V6.96148c0-.97373.3333-1.94058 1.06175-2.66902.72844-.72844 1.69529-1.06175 2.66902-1.06175H42.4997c1.1046 0 2 .89543 2 2s-.8954 2-2 2ZM12.7308 28.0772h5.8844c.6923 0 1.7308-.6923 1.7308-1.7307v-4.1546c0-1.0384-.6923-1.7307-1.7308-1.7307h-5.8844c-1.0385 0-1.7308.6923-1.7308 1.7307v4.1546c0 1.0384.6923 1.7307 1.7308 1.7307Zm-.9613 10.038c0-1.1045.8955-2 2-2h19.7306c1.1046 0 2 .8955 2 2 0 1.1046-.8954 2-2 2H13.7695c-1.1045 0-2-.8954-2-2Zm29.3457-2c-1.1045 0-2 .8955-2 2 0 1.1046.8955 2 2 2h9.0004c1.1045 0 2-.8954 2-2 0-1.1045-.8955-2-2-2h-9.0004Z" fill="currentColor"/></svg>