<svg width="24" height="24" viewBox="0 0 24 24" fill="none" xmlns="http://www.w3.org/2000/svg">
<path d="M8.23656 17.1548L8.54252 16.8489C8.74528 16.6462 8.74528 16.3174 8.54252 16.1146L4.91102 12.504H21.1754C21.4621 12.504 21.6946 12.2716 21.6946 11.9848V11.5521C21.6946 11.2654 21.4621 11.0329 21.1754 11.0329H4.91102L8.54252 7.42233C8.74528 7.21957 8.74528 6.89081 8.54252 6.68801L8.23656 6.38209C8.0338 6.17933 7.70504 6.17933 7.50228 6.38209L2.46207 11.4013C2.25931 11.6041 2.25931 11.9328 2.46207 12.1356L7.50228 17.1549C7.70504 17.3576 8.0338 17.3576 8.23656 17.1548Z" fill="#1A1A1A"/>
<rect x="12.4639" y="6.23" width="9.23077" height="1.38462" rx="0.461538" fill="#666666"/>
<rect x="12.4639" y="16.3838" width="9.23077" height="1.38462" rx="0.461538" fill="#666666"/>
</svg>
