<svg width="24" height="24" viewBox="0 0 24 24" fill="none" xmlns="http://www.w3.org/2000/svg">
<path fill-rule="evenodd" clip-rule="evenodd" d="M12.0986 16.6H14.7C15.5 16.6 16.2 15.9 16.2 15.1V3.5C16.2 2.7 15.5 2 14.7 2H7.60001C6.80001 2 6.10001 2.7 6.10001 3.5V9.46521L4 11.2C3.4 11.8 3 12.7 3 13.5V21.6C3 21.9 3.3 22.2 3.6 22.2H10.3C10.6 22.2 10.9 21.9 10.8 21.5V19.1C11.288 18.7096 12.0617 17.9383 12.0986 16.6ZM9.06611 16.6C9.02419 17.8948 8.30001 18.8 8.30001 18.8C8.10001 18.9 7.90001 19 7.80001 19C7.70001 19 7.50001 19 7.40001 18.9C7.10001 18.7 7.10001 18.3 7.30001 18.1C7.30001 18.1 8.20001 16.9 7.60001 15.5C7.50001 15.3 7.50001 15 7.70001 14.9C8.10001 14.5 9.10001 13.3 9.40001 12.9C9.60001 12.6 9.60001 12.2 9.50001 11.8C9.50001 11.5 9.40001 11.4 9.30001 11.3L5.40001 15.2L4.60001 14.4L6.10001 12.9V10.9826L4.8 12C4.4 12.3 4.2 12.9 4.2 13.4V21H9.7V18.9C9.7 18.7 9.8 18.5 10 18.4C10 18.4 10.9 17.8 10.9 16.6L9.06611 16.6ZM8.90001 15.4L8.90002 15.4C9.30003 14.9 10.1 13.9 10.4 13.5C11 12.4 10.7 10.9 10 10.3C9.50001 9.89999 8.90001 9.99999 8.50001 10.5L7.30001 11.7V9.97863C7.35416 9.86091 7.35084 9.72865 7.30001 9.59179V3.5C7.30001 3.3 7.40001 3.2 7.60001 3.2H14.7C14.9 3.2 15 3.3 15 3.5V15.1C15 15.3 14.9 15.4 14.7 15.4H11.5019L11.5 15.4L11.4981 15.4L8.90001 15.4ZM13.2 9.10001C12.9 9.10001 12.6 8.80001 12.6 8.50001V4.70001C12.6 4.40001 12.9 4.10001 13.2 4.10001C13.5 4.10001 13.8 4.40001 13.8 4.70001V8.40001C13.8 8.80001 13.5 9.10001 13.2 9.10001ZM12.6 12.2C12.6 12.5 12.9 12.8 13.2 12.8C13.5 12.8 13.8 12.6 13.8 12.2V10.7C13.8 10.4 13.5 10.1 13.2 10.1C12.9 10.1 12.6 10.4 12.6 10.7V12.2ZM11.6 5.30001V5.90001C11.6 6.30001 11.3 6.60001 10.9 6.60001H10.8C10.4 6.60001 10.1 6.30001 10.1 5.90001V5.30001C10.1 4.90001 10.4 4.60001 10.8 4.60001H11C11.3 4.60001 11.6 4.90001 11.6 5.30001ZM17.5 12.1C17.2 12.1 16.9 11.8 16.9 11.5C16.9 11.2 17.2 10.9 17.5 10.9C18.4 10.9 19.2 10.1 19.2 9.2C19.2 8.3 18.4 7.5 17.5 7.5C17.2 7.5 16.9 7.2 16.9 6.9C16.9 6.6 17.2 6.3 17.5 6.3C19.1 6.3 20.4 7.6 20.4 9.2C20.4 10.8 19.1 12.1 17.5 12.1ZM16.5 9.9C16.5 10.2 16.8 10.5 17.1 10.5C17.9 10.5 18.5 10 18.5 9.2C18.5 8.4 17.9 7.8 17.1 7.8C16.8 7.8 16.5 8.1 16.5 8.4C16.5 8.7 16.8 9 17.1 9C17.2 9 17.3 9 17.3 9.1C17.3 9.2 17.2 9.3 17.1 9.3C16.8 9.3 16.5 9.6 16.5 9.9Z" fill="#1A1A1A"/>
</svg>
