<svg width="24" height="24" viewBox="0 0 24 24" fill="none" xmlns="http://www.w3.org/2000/svg">
<path fill-rule="evenodd" clip-rule="evenodd" d="M17.3403 3.33912C17.2414 3.13445 17.0355 3.00319 16.8082 3.00006C16.5809 2.99693 16.3714 3.12247 16.267 3.32434L14.9068 5.95406L12.0074 6.4071C11.7796 6.44269 11.5923 6.60564 11.5256 6.82633C11.459 7.04702 11.5246 7.2864 11.6945 7.44219L13.849 9.41714L13.3103 12.2895C13.268 12.5149 13.358 12.7447 13.542 12.8815C13.726 13.0184 13.972 13.0383 14.1757 12.933L16.8 11.5756L19.4244 12.933C19.6282 13.0383 19.8741 13.0184 20.0581 12.8815C20.2422 12.7447 20.3321 12.5149 20.2898 12.2895L19.7496 9.40898L21.8148 7.43347C21.9797 7.2757 22.0409 7.03801 21.9725 6.82024C21.9042 6.60247 21.7182 6.44233 21.4927 6.4071L18.6036 5.95567L17.3403 3.33912ZM15.8329 6.77556L16.7815 4.94168L17.6598 6.76078C17.7454 6.93822 17.9128 7.06229 18.1075 7.09271L20.1082 7.40533L18.6852 8.76653C18.5387 8.90669 18.4729 9.11139 18.5103 9.31069L18.8838 11.3023L17.0756 10.3671C16.9027 10.2777 16.6972 10.2777 16.5243 10.3671L14.7164 11.3023L15.0899 9.31069C15.1281 9.10694 15.0584 8.89789 14.9056 8.75781L13.4246 7.40021L15.3926 7.09271C15.5815 7.06319 15.745 6.9454 15.8329 6.77556ZM3.2 9.7H10.5001C10.8315 9.7 11.1001 9.43137 11.1001 9.1C11.1001 8.76863 10.8315 8.5 10.5001 8.5H3.1C2.81365 8.5 2.5284 8.59807 2.31324 8.81324C2.09807 9.0284 2 9.31365 2 9.6V20.2001C2 20.4864 2.09807 20.7717 2.31324 20.9869C2.5284 21.202 2.81365 21.3001 3.1 21.3001H19.1C19.3863 21.3001 19.6716 21.202 19.8868 20.9869C20.1019 20.7717 20.2 20.4864 20.2 20.2001V14.9999C20.2 14.6685 19.9314 14.3999 19.6 14.3999C19.2686 14.3999 19 14.6685 19 14.9999V20.1001H3.2V9.7ZM6.90005 14.9999H5.40005C5.20005 14.9999 5.00015 14.8 5.00015 14.6V13.6C5.00015 13.4 5.20005 13.2001 5.40005 13.2001H6.90005C7.10005 13.2001 7.29996 13.4 7.29996 13.6V14.6C7.29996 14.8 7.10005 14.9999 6.90005 14.9999ZM5.6 17C5.26863 17 5 17.2686 5 17.6C5 17.9314 5.26863 18.2 5.6 18.2H10.8C11.1313 18.2 11.4 17.9314 11.4 17.6C11.4 17.2686 11.1313 17 10.8 17H5.6ZM12.2 17.6C12.2 17.2686 12.4686 17 12.8 17H15.1C15.4314 17 15.7 17.2686 15.7 17.6C15.7 17.9314 15.4314 18.2 15.1 18.2H12.8C12.4686 18.2 12.2 17.9314 12.2 17.6Z" fill="#1A1A1A"/>
</svg>
