<svg width="16" height="16" fill="none" xmlns="http://www.w3.org/2000/svg"><path fill-rule="evenodd" clip-rule="evenodd" d="M12.9495 15.0395c.176 0 .32-.1432.32-.32V3.20191H2.72711V14.7195c0 .1768.144.32.3208.32h9.90159ZM9.85831 2.23391h-3.7176V.95951h3.7176v1.2744Zm3.93359.008h1.728c.2648 0 .4792.2152.4792.48s-.2144.48-.4792.48h-1.2912V14.7195c0 .7056-.5744 1.28-1.2792 1.28H3.04791c-.7056 0-1.28-.5744-1.28-1.28V3.20191h-1.288c-.2648 0-.48-.2152-.48-.48s.2152-.48.48-.48h1.7248c.0061-.00068.01205-.00222.01805-.00377.00816-.00211.01639-.00423.02515-.00423h2.9336V.47951c0-.2648.2144-.4792.4792-.4792h4.67759c.2648 0 .48.2144.48.4792v1.7544h2.9312c.0082 0 .0161.00207.0241.00415.006.00157.0121.00316.0183.00385ZM5.58783 12.5723c0 .2648-.2152.48-.48.48s-.48-.2152-.48-.48V5.66031c0-.2648.2152-.48.48-.48s.48.2152.48.48v6.91199Zm5.28707.48c.2648 0 .48-.2152.48-.48V5.66031c0-.2648-.2152-.48-.48-.48s-.48.2152-.48.48v6.91199c0 .2648.2152.48.48.48Zm-2.40347-.48c0 .2648-.2152.48-.48.48s-.48-.2152-.48-.48V5.66031c0-.2648.2152-.48.48-.48s.48.2152.48.48v6.91199Z" fill="#969696"/><mask id="a" style="mask-type:alpha" maskUnits="userSpaceOnUse" x="0" y="0" width="16" height="16"><path fill-rule="evenodd" clip-rule="evenodd" d="M12.9495 15.0395c.176 0 .32-.1432.32-.32V3.20191H2.72711V14.7195c0 .1768.144.32.3208.32h9.90159ZM9.85831 2.23391h-3.7176V.95951h3.7176v1.2744Zm3.93359.008h1.728c.2648 0 .4792.2152.4792.48s-.2144.48-.4792.48h-1.2912V14.7195c0 .7056-.5744 1.28-1.2792 1.28H3.04791c-.7056 0-1.28-.5744-1.28-1.28V3.20191h-1.288c-.2648 0-.48-.2152-.48-.48s.2152-.48.48-.48h1.7248c.0061-.00068.01205-.00222.01805-.00377.00816-.00211.01639-.00423.02515-.00423h2.9336V.47951c0-.2648.2144-.4792.4792-.4792h4.67759c.2648 0 .48.2144.48.4792v1.7544h2.9312c.0082 0 .0161.00207.0241.00415.006.00157.0121.00316.0183.00385ZM5.58783 12.5723c0 .2648-.2152.48-.48.48s-.48-.2152-.48-.48V5.66031c0-.2648.2152-.48.48-.48s.48.2152.48.48v6.91199Zm5.28707.48c.2648 0 .48-.2152.48-.48V5.66031c0-.2648-.2152-.48-.48-.48s-.48.2152-.48.48v6.91199c0 .2648.2152.48.48.48Zm-2.40347-.48c0 .2648-.2152.48-.48.48s-.48-.2152-.48-.48V5.66031c0-.2648.2152-.48.48-.48s.48.2152.48.48v6.91199Z" fill="#fff"/></mask><g mask="url(#a)"><path fill="#F95151" d="M0 0h16v16H0z"/></g></svg>