<svg width="24" height="24" viewBox="0 0 24 24" fill="none" xmlns="http://www.w3.org/2000/svg">
<path fill-rule="evenodd" clip-rule="evenodd" d="M9.18977 4.16928C9.42929 4.08944 9.72538 4.14098 10.2228 4.30678C10.2818 4.32643 10.3444 4.3481 10.4101 4.37087L10.4102 4.37088C10.8233 4.51388 11.3613 4.70007 11.9 4.70007C12.2079 4.70007 12.5084 4.63247 12.7726 4.55626C12.9458 4.50628 13.1337 4.44289 13.306 4.38477L13.306 4.38476C13.387 4.35743 13.4645 4.33126 13.5355 4.30819C14.0463 4.14217 14.3686 4.08873 14.6103 4.16928C14.8635 4.25369 15.0922 4.48135 15.3898 4.89048C15.4407 4.96043 15.4951 5.03849 15.553 5.12149L15.553 5.1215C15.7851 5.45439 16.0727 5.86687 16.4096 6.15563C16.423 6.16713 16.4369 6.17804 16.4513 6.18831C16.6965 6.36349 16.9797 6.47959 17.2337 6.56818C17.3808 6.61947 17.556 6.67338 17.7178 6.72317L17.7178 6.72317C17.8165 6.75355 17.9102 6.7824 17.9896 6.80819C18.4992 6.97382 18.769 7.12244 18.8912 7.31807C18.8978 7.32853 18.9046 7.33878 18.9118 7.34882C19.0329 7.51833 19.075 7.81835 19.075 8.37507C19.075 8.4333 19.0745 8.49486 19.074 8.55911V8.55913C19.0702 9.00336 19.0654 9.5764 19.2238 10.0685C19.2995 10.3547 19.4436 10.6122 19.5836 10.8288C19.6812 10.98 19.798 11.1417 19.9049 11.2898L19.9049 11.2898L19.905 11.2899C19.9508 11.3534 19.9949 11.4145 20.0349 11.4711C20.338 11.9006 20.5 12.2098 20.5 12.5001C20.5 12.7302 20.3532 13.0031 20.0349 13.4541C20.0076 13.4927 19.9787 13.533 19.9486 13.5751C19.691 13.9347 19.3468 14.4152 19.2214 14.9393C19.0655 15.4286 19.0703 15.9781 19.074 16.4082V16.4085C19.0745 16.4709 19.075 16.5308 19.075 16.5876C19.075 17.0998 19.0407 17.4295 18.9018 17.6647C18.8518 17.7287 18.7641 17.8008 18.6098 17.8791C18.4431 17.9637 18.2391 18.0359 17.9896 18.117C17.9487 18.1303 17.9062 18.1439 17.8626 18.1579L17.8625 18.1579C17.6562 18.2241 17.4241 18.2986 17.2078 18.3854C16.9502 18.4888 16.6714 18.6257 16.4297 18.8274C16.1922 19.002 15.9999 19.2255 15.8415 19.4333C15.7327 19.5762 15.6202 19.7392 15.5172 19.8886L15.5171 19.8887C15.4707 19.9559 15.4262 20.0204 15.3849 20.0791C15.0782 20.5135 14.8524 20.7502 14.6103 20.8309C14.3708 20.9107 14.0747 20.8592 13.5773 20.6934C13.5184 20.6737 13.4558 20.6521 13.3901 20.6294L13.3899 20.6293C12.9767 20.4863 12.4387 20.3001 11.9 20.3001C11.5921 20.3001 11.2917 20.3677 11.0275 20.4439C10.8542 20.4939 10.6664 20.5573 10.4941 20.6154L10.4936 20.6155C10.4128 20.6428 10.3354 20.6689 10.2646 20.692C9.75375 20.858 9.43144 20.9114 9.18977 20.8309C8.93656 20.7465 8.70783 20.5188 8.41028 20.1097C8.3594 20.0397 8.30498 19.9617 8.24711 19.8787C8.015 19.5458 7.7274 19.1333 7.39051 18.8445C7.37709 18.833 7.36316 18.8221 7.34878 18.8118C7.10353 18.6367 6.82041 18.5206 6.56633 18.432C6.41923 18.3807 6.24408 18.3268 6.0823 18.277C5.98358 18.2466 5.88984 18.2177 5.81049 18.192C5.30086 18.0263 5.0311 17.8777 4.90884 17.6821C4.9023 17.6716 4.89544 17.6614 4.88828 17.6513C4.76719 17.4818 4.72504 17.1818 4.72504 16.6251C4.72504 16.5669 4.72556 16.5053 4.7261 16.4411L4.7261 16.441C4.72991 15.9904 4.73484 15.4071 4.56925 14.9103C4.41436 14.4457 4.10589 14.018 3.86445 13.6832C3.81631 13.6165 3.77084 13.5534 3.72978 13.4945C3.44677 13.0884 3.30004 12.7984 3.30004 12.5001C3.30004 12.2699 3.44686 11.9971 3.76522 11.5461C3.79245 11.5075 3.82135 11.4672 3.85143 11.4252L3.85148 11.4251C4.11406 11.0585 4.46665 10.5662 4.58575 10.0302C4.64998 9.74119 4.66254 9.44591 4.66254 9.17976C4.66254 9.04722 4.65929 8.9139 4.65623 8.78846V8.78845L4.65611 8.78332C4.65296 8.65382 4.65004 8.53219 4.65004 8.41257C4.65004 7.91578 4.70615 7.59192 4.88004 7.36007L4.88017 7.36017L4.88828 7.34882C5.00804 7.18115 5.26168 7.05365 5.77727 6.88178C5.82847 6.86472 5.88249 6.84717 5.93878 6.82888C6.36291 6.69108 6.91545 6.51156 7.35457 6.18416C7.59935 6.00796 7.79669 5.77926 7.95855 5.56682C8.06741 5.42394 8.17987 5.2609 8.28288 5.11157L8.28288 5.11157C8.32931 5.04426 8.37382 4.97973 8.41522 4.92108C8.72191 4.4866 8.94766 4.24999 9.18977 4.16928ZM7.35457 6.18416C7.35639 6.1828 7.35822 6.18144 7.36004 6.18007L7.00004 5.70007L7.34878 6.18831C7.35071 6.18693 7.35264 6.18555 7.35457 6.18416ZM11.9 3.50007C11.5791 3.50007 11.2575 3.39069 10.8302 3.24535L10.8299 3.24524C10.7572 3.22053 10.6815 3.19479 10.6023 3.16836C10.1247 3.00917 9.47078 2.8107 8.8103 3.03086C8.15242 3.25016 7.72816 3.81355 7.43486 4.22906C7.3762 4.31216 7.32308 4.38926 7.27268 4.46242C7.17979 4.59726 7.09612 4.7187 7.00403 4.83957C6.86715 5.01922 6.75383 5.13859 6.65129 5.21183L6.6512 5.2117L6.64004 5.22007C6.37047 5.42225 6.0195 5.53805 5.56549 5.68784L5.56523 5.68793C5.51091 5.70585 5.45511 5.72426 5.3978 5.74336C4.94007 5.89594 4.29676 6.11737 3.91598 6.6455C3.49365 7.21252 3.45004 7.88605 3.45004 8.41257C3.45004 8.54859 3.45334 8.68417 3.45642 8.81082L3.45646 8.81253C3.45962 8.94223 3.46254 9.06256 3.46254 9.17976C3.46254 9.41673 3.45009 9.60895 3.41432 9.76992C3.3514 10.0531 3.14853 10.3399 2.84828 10.7643L2.78486 10.8541C2.50321 11.2531 2.10004 11.8302 2.10004 12.5001C2.10004 13.2018 2.4533 13.7617 2.7453 14.1806C2.81013 14.2737 2.87165 14.3599 2.92952 14.4409C3.16445 14.7701 3.33918 15.0149 3.43083 15.2898C3.52844 15.5827 3.52718 15.9431 3.5255 16.4237C3.52527 16.4886 3.52504 16.5557 3.52504 16.6251C3.52504 17.1136 3.53273 17.8049 3.90101 18.3335C4.28061 18.9267 4.95342 19.1752 5.43959 19.3332C5.56327 19.3734 5.67107 19.4063 5.77246 19.4373L5.77263 19.4374C5.9094 19.4792 6.03451 19.5174 6.17124 19.5651C6.37813 19.6372 6.52665 19.7044 6.63072 19.7741C6.83076 19.9517 6.99513 20.186 7.20498 20.4851L7.20501 20.4851C7.27685 20.5875 7.35403 20.6975 7.4398 20.8155C7.74225 21.2313 8.16351 21.7537 8.8103 21.9693C9.46864 22.1887 10.1463 21.9922 10.6355 21.8332C10.7356 21.8006 10.8274 21.7696 10.9148 21.7401L10.9148 21.7401C11.07 21.6876 11.2112 21.6398 11.3601 21.5969C11.5834 21.5325 11.7579 21.5001 11.9 21.5001C12.2209 21.5001 12.5425 21.6095 12.9698 21.7548C13.0426 21.7795 13.1184 21.8053 13.1978 21.8318C13.6754 21.991 14.3293 22.1894 14.9898 21.9693C15.6477 21.75 16.0719 21.1866 16.3652 20.7711C16.4239 20.688 16.477 20.6109 16.5274 20.5377C16.6203 20.4029 16.704 20.2814 16.796 20.1606C16.9329 19.9809 17.0462 19.8616 17.1488 19.7883C17.1632 19.778 17.1771 19.7671 17.1905 19.7556C17.2942 19.6667 17.4446 19.5834 17.6548 19.4991C17.8277 19.4297 18.01 19.3711 18.2145 19.3053L18.2155 19.305C18.2626 19.2899 18.3109 19.2743 18.3605 19.2582C18.611 19.1768 18.8945 19.0802 19.1528 18.9492C19.4126 18.8174 19.6863 18.6316 19.8883 18.3488C19.8954 18.3388 19.9023 18.3285 19.9088 18.3181C20.2611 17.7544 20.275 17.0877 20.275 16.5876C20.275 16.5198 20.2748 16.4544 20.2746 16.3913L20.2746 16.3904C20.2729 15.9247 20.2716 15.5827 20.3692 15.2898C20.3758 15.2702 20.3813 15.2504 20.3857 15.2302C20.4487 14.9471 20.6515 14.6603 20.9518 14.2358L21.0152 14.1461C21.2969 13.7471 21.7 13.1699 21.7 12.5001C21.7 11.7904 21.312 11.1996 21.0152 10.7791C20.958 10.698 20.9047 10.6243 20.8544 10.5546C20.7578 10.421 20.6723 10.3026 20.5915 10.1776C20.4727 9.99367 20.4083 9.85918 20.3821 9.75455C20.3784 9.73965 20.3741 9.72491 20.3692 9.71034C20.2716 9.41749 20.2729 9.05704 20.2746 8.5765C20.2748 8.51159 20.275 8.44449 20.275 8.37507C20.275 7.88652 20.2673 7.1952 19.8991 6.66661C19.5195 6.0734 18.8467 5.82496 18.3605 5.66695C18.2367 5.62673 18.1289 5.59378 18.0274 5.56278C17.8907 5.52099 17.7656 5.48276 17.6288 5.43509C17.4219 5.36295 17.2734 5.29576 17.1694 5.22606C16.9693 5.04841 16.805 4.81414 16.5951 4.51504L16.5951 4.51503C16.5232 4.41262 16.4461 4.30261 16.3603 4.18467C16.0578 3.7688 15.6366 3.24646 14.9898 3.03086C14.3314 2.81142 13.6537 3.00798 13.1646 3.16695C13.0644 3.1995 12.9727 3.23054 12.8853 3.26007L12.8853 3.26007C12.7301 3.31257 12.5889 3.3603 12.44 3.40327C12.2167 3.46767 12.0421 3.50007 11.9 3.50007ZM7.70003 11.9001C8.10003 12.3001 8.60003 12.5001 9.20003 12.5001C9.80003 12.5001 10.3 12.2001 10.7 11.8001C11.1 11.3001 11.3 10.8001 11.3 10.2001C11.3 9.60008 11.1 9.10008 10.7 8.70008C10.3 8.30008 9.80003 8.10008 9.20003 8.10008C8.60003 8.10008 8.10003 8.20008 7.70003 8.70008C7.30003 9.20008 7.10003 9.70008 7.10003 10.3001C7.10003 10.9001 7.30003 11.4001 7.70003 11.9001ZM9.80003 11.0001C9.60003 11.2001 9.40003 11.3001 9.20003 11.3001C9.00003 11.3001 8.80003 11.2001 8.60003 11.0001C8.57916 10.9375 8.55829 10.8792 8.53833 10.8235C8.46264 10.6122 8.40003 10.4375 8.40003 10.2001C8.40003 9.90008 8.50003 9.70008 8.60003 9.50008C8.80003 9.30008 9.00003 9.20008 9.20003 9.20008C9.40003 9.20008 9.60003 9.30008 9.80003 9.50008C9.90003 9.70008 10 10.0001 10 10.3001C10 10.6001 9.90003 10.8001 9.80003 11.0001ZM8.60003 15.8001C8.50003 15.9001 8.50003 16.1001 8.50003 16.2001C8.50003 16.4001 8.60003 16.5001 8.70003 16.6001C8.80003 16.7001 8.90003 16.8001 9.10003 16.8001C9.30003 16.8001 9.50003 16.7001 9.60003 16.5001L15.1 9.00008C15.2 8.90008 15.2 8.70008 15.2 8.60008C15.2 8.40008 15.1 8.30008 15 8.20008C14.9 8.10008 14.8 8.00008 14.6 8.00008C14.4 8.00008 14.2 8.10008 14.1 8.30008L8.60003 15.8001ZM13 16.2001C13.4 16.6001 13.9 16.8001 14.5 16.8001C15.1 16.8001 15.6 16.6001 16 16.2001C16.4 15.7001 16.6 15.2001 16.6 14.6001C16.6 14.0001 16.4 13.5001 16 13.1001C15.6 12.7001 15.1 12.5001 14.5 12.5001C13.9 12.5001 13.4 12.7001 13 13.1001C12.6 13.6001 12.4 14.1001 12.4 14.7001C12.4 15.3001 12.6 15.8001 13 16.2001ZM15.1 15.4001C14.9 15.6001 14.7 15.7001 14.5 15.7001C14.3 15.7001 14.1 15.6001 13.9 15.4001C13.8792 15.3375 13.8583 15.2792 13.8383 15.2235C13.7626 15.0122 13.7 14.8375 13.7 14.6001C13.7 14.4001 13.8 14.1001 13.9 13.9001C14.1 13.7001 14.3 13.6001 14.5 13.6001C14.8 13.6001 14.9 13.7001 15.1 13.9001C15.1209 13.9627 15.1418 14.021 15.1617 14.0767C15.2374 14.2879 15.3 14.4627 15.3 14.7001C15.3 14.9001 15.2 15.2001 15.1 15.4001Z" fill="#1A1A1A"/>
</svg>
