<svg width="24" height="24" viewBox="0 0 24 24" fill="none" xmlns="http://www.w3.org/2000/svg">
<path d="M6.60022 6.19997V3.1C6.60022 2.8 6.80022 2.6 7.10022 2.6H21.2001C21.5001 2.6 21.7001 2.8 21.7001 3.1V20.8999C21.7001 21.1999 21.5001 21.3999 21.2001 21.3999H7.10022C6.80022 21.3999 6.60022 21.1999 6.60022 20.8999V17.8999" stroke="currentColor" stroke-width="1.2" stroke-miterlimit="10" stroke-linecap="round" stroke-linejoin="round"/>
<path d="M5.50012 14.4999C5.50012 13.1999 5.10012 11.7999 4.50012 10.8999C4.10012 10.2999 3.70007 9.6999 3.70007 8.9999C3.70007 7.3999 5.00012 6.19997 6.50012 6.19997C8.10012 6.19997 9.30017 7.4999 9.30017 8.9999C9.30017 9.6999 8.90012 10.3999 8.50012 10.8999C7.90012 11.6999 7.50012 13.0999 7.50012 14.4999" stroke="currentColor" stroke-width="1.2" stroke-miterlimit="10" stroke-linecap="round" stroke-linejoin="round"/>
<path d="M9.30017 17.7H3.90002C3.10002 17.7 2.40002 17 2.40002 16.2V15.2999C2.40002 15.0999 2.60017 14.8999 2.80017 14.8999H10.3002C10.5002 14.8999 10.7001 15.0999 10.7001 15.2999V16.2C10.8001 17 10.1002 17.7 9.30017 17.7Z" stroke="currentColor" stroke-width="1.2" stroke-miterlimit="10" stroke-linecap="round" stroke-linejoin="round"/>
<path d="M16.2001 11.6C14.3001 11.6 12.8002 13.0999 12.8002 14.9999C12.8002 16.8999 14.3001 18.3999 16.2001 18.3999C18.1001 18.3999 19.6002 16.8999 19.6002 14.9999C19.6002 13.0999 18.1001 11.6 16.2001 11.6ZM17.8002 13.9999L16.2001 16.4999C16.1001 16.5999 16 16.7 15.9 16.7C15.9 16.7 15.9002 16.7 15.8002 16.7C15.7002 16.7 15.6001 16.7 15.5001 16.6L14.5001 15.7C14.3001 15.5 14.3001 15.2 14.5001 15.1C14.7001 14.9 15.0002 14.9 15.1002 15.1L15.7001 15.6L17.0001 13.4999C17.1001 13.2999 17.4002 13.1999 17.6002 13.2999C17.9002 13.4999 17.9002 13.7999 17.8002 13.9999Z" fill="#444444"/>
<path d="M13.7001 5.9999H18.3002" stroke="currentColor" stroke-width="1.2" stroke-miterlimit="10" stroke-linecap="round" stroke-linejoin="round"/>
<path d="M13.7001 8.89993H18.3002" stroke="currentColor" stroke-width="1.2" stroke-miterlimit="10" stroke-linecap="round" stroke-linejoin="round"/>
</svg>
