<svg width="24" height="24" viewBox="0 0 24 24" fill="none" xmlns="http://www.w3.org/2000/svg">
<path d="M15.768 17.1548L15.4621 16.8489C15.2593 16.6462 15.2593 16.3174 15.4621 16.1146L19.0936 12.504H2.82922C2.54247 12.504 2.30999 12.2716 2.30999 11.9848V11.5521C2.30999 11.2654 2.54247 11.0329 2.82922 11.0329H19.0936L15.4621 7.42233C15.2593 7.21957 15.2593 6.89081 15.4621 6.68801L15.768 6.38209C15.9708 6.17933 16.2995 6.17933 16.5023 6.38209L21.5425 11.4013C21.7453 11.6041 21.7453 11.9328 21.5425 12.1356L16.5023 17.1549C16.2995 17.3576 15.9708 17.3576 15.768 17.1548Z" fill="#1A1A1A"/>
<rect width="9.23077" height="1.38462" rx="0.461538" transform="matrix(-1 0 0 1 11.5407 6.23)" fill="#666666"/>
<rect width="9.23077" height="1.38462" rx="0.461538" transform="matrix(-1 0 0 1 11.5407 16.3838)" fill="#666666"/>
</svg>
