<svg width="24" height="24" viewBox="0 0 24 24" fill="none" xmlns="http://www.w3.org/2000/svg">
<path d="M10.2002 3.06827C10.9002 3.76827 11.7002 7.06827 11.7002 7.06827C11.7002 7.06827 8.40017 6.36827 7.70017 5.56827C7.00017 4.86827 7.00017 3.66818 7.70017 2.96818C8.40017 2.36818 9.50017 2.36827 10.2002 3.06827Z" stroke="currentColor" stroke-width="1.2" stroke-miterlimit="10"/>
<path d="M13.8002 3.06827C13.1002 3.76827 12.3002 7.06827 12.3002 7.06827C12.3002 7.06827 15.6002 6.36827 16.3002 5.56827C17.0002 4.86827 17.0002 3.66818 16.3002 2.96818C15.7002 2.36818 14.5002 2.36827 13.8002 3.06827Z" stroke="currentColor" stroke-width="1.2" stroke-miterlimit="10"/>
<path d="M18.6002 21.4682H5.40002C4.60002 21.4682 3.90002 20.7732 3.90002 19.9789V8.95758C3.90002 8.16326 4.60002 7.46823 5.40002 7.46823H18.6002C19.4002 7.46823 20.1002 8.16326 20.1002 8.95758V19.9789C20.1002 20.7732 19.4002 21.4682 18.6002 21.4682Z" stroke="currentColor" stroke-width="1.2" stroke-miterlimit="10"/>
<path d="M12.0001 7.06833V21.4682" stroke="currentColor" stroke-width="1.2" stroke-miterlimit="10"/>
<path d="M3.90002 14.2683H20.0001" stroke="currentColor" stroke-width="1.2" stroke-miterlimit="10"/>
</svg>
