<svg width="24" height="24" viewBox="0 0 24 24" fill="none" xmlns="http://www.w3.org/2000/svg">
<path d="M12.0001 21C16.9707 21 21 16.9705 21 12C21 7.02945 16.9707 3 12.0001 3C7.02957 3 3 7.02945 3 12C3 16.9705 7.02957 21 12.0001 21Z" stroke="currentColor" stroke-width="1.5" stroke-miterlimit="10" stroke-linecap="round" stroke-linejoin="round"/>
<path d="M12.0001 16.4999C14.4854 16.4999 16.5001 14.4853 16.5001 12C16.5001 9.51473 14.4854 7.49994 12.0001 7.49994C9.51484 7.49994 7.49994 9.51473 7.49994 12C7.49994 14.4853 9.51484 16.4999 12.0001 16.4999Z" stroke="currentColor" stroke-width="1.5" stroke-miterlimit="10" stroke-linecap="round" stroke-linejoin="round"/>
<path d="M7.69163 10.1808L4.62762 7.02122" stroke="currentColor" stroke-width="1.5" stroke-miterlimit="10" stroke-linecap="round" stroke-linejoin="round"/>
<path d="M16.9788 19.3723L13.7233 16.1169" stroke="currentColor" stroke-width="1.5" stroke-miterlimit="10" stroke-linecap="round" stroke-linejoin="round"/>
<path d="M16.1169 13.7233L19.2766 16.9787" stroke="currentColor" stroke-width="1.5" stroke-miterlimit="10" stroke-linecap="round" stroke-linejoin="round"/>
<path d="M7.02124 4.62761L10.1809 7.78722" stroke="currentColor" stroke-width="1.5" stroke-miterlimit="10" stroke-linecap="round" stroke-linejoin="round"/>
<path d="M17.0744 4.62761L13.8192 7.88294" stroke="currentColor" stroke-width="1.5" stroke-miterlimit="10" stroke-linecap="round" stroke-linejoin="round"/>
<path d="M16.2128 10.1808L19.468 7.02122" stroke="currentColor" stroke-width="1.5" stroke-miterlimit="10" stroke-linecap="round" stroke-linejoin="round"/>
<path d="M7.11707 19.3723L10.2767 16.2128" stroke="currentColor" stroke-width="1.5" stroke-miterlimit="10" stroke-linecap="round" stroke-linejoin="round"/>
<path d="M7.78722 13.8192L4.72345 16.9787" stroke="currentColor" stroke-width="1.5" stroke-miterlimit="10" stroke-linecap="round" stroke-linejoin="round"/>
</svg>
