<svg width="24" height="24" viewBox="0 0 24 24" fill="none" xmlns="http://www.w3.org/2000/svg">
  <path fill-rule="evenodd" clip-rule="evenodd" d="M4.65461 3.10845C4.43836 2.85736 4.05951 2.82913 3.80843 3.04538C3.55735 3.26163 3.52911 3.64048 3.74536 3.89156L18.6455 21.1916C18.8618 21.4427 19.2406 21.4709 19.4917 21.2547C19.7428 21.0384 19.771 20.6596 19.5548 20.4085L17.1246 17.5869C18.6142 16.8589 19.675 15.8888 20.3806 15.0655C20.7789 14.6007 21.0658 14.1808 21.2548 13.8738C21.3493 13.7202 21.4196 13.5944 21.4672 13.5048C21.491 13.46 21.5092 13.4243 21.522 13.3986L21.5371 13.3677L21.5416 13.3581L21.5432 13.3549L21.5438 13.3536L21.544 13.3531C21.5441 13.3529 21.5442 13.3526 21 13.1L21.5442 13.3526C21.581 13.2735 21.6 13.1873 21.6 13.1V12.5C21.6 12.4132 21.5812 12.3274 21.5448 12.2486L21 12.5C21.5448 12.2486 21.5446 12.2483 21.5445 12.2479L21.5441 12.2472L21.5432 12.2453L21.5408 12.2401L21.5332 12.2242C21.5269 12.2111 21.5181 12.1932 21.5068 12.1708C21.4841 12.126 21.4513 12.0632 21.4077 11.9849C21.3206 11.8283 21.1904 11.6095 21.0127 11.3492C20.6577 10.8292 20.1107 10.1401 19.3361 9.45158C17.7795 8.068 15.3167 6.70006 11.7 6.70006C10.3414 6.70006 9.15634 6.881 8.14604 7.16223L4.65461 3.10845ZM14.4371 14.4666L16.3112 16.6425C17.7757 15.9895 18.8017 15.0637 19.4695 14.2846C19.8211 13.8743 20.0717 13.5067 20.2328 13.2449C20.3077 13.1231 20.3631 13.0246 20.4 12.9558V12.6433C20.3883 12.6213 20.3746 12.5962 20.3591 12.5683C20.288 12.4405 20.1768 12.253 20.0216 12.0258C19.711 11.5708 19.2268 10.96 18.5389 10.3485C17.5906 9.50561 16.2492 8.65523 14.4225 8.21245C15.2541 9.00177 15.8 10.0599 15.8 11.3C15.8 12.582 15.3137 13.6695 14.4371 14.4666ZM11.9721 7.90291C11.4575 8.2327 11.1001 8.80678 11.1001 9.5C11.1001 10.5 11.9 11.4 13 11.4C14 11.4 14.8999 10.6 14.8999 9.5C14.8999 8.96644 14.6628 8.51193 14.3993 8.20685C13.6694 8.03171 12.8623 7.92162 11.9721 7.90291ZM6.92934 8.21765C7.08528 8.51004 6.97467 8.87348 6.68228 9.02942C5.26615 9.78469 4.30068 10.7275 3.69068 11.4783C3.38575 11.8537 3.17055 12.1799 3.03331 12.4087C2.97504 12.5058 2.93093 12.5852 2.90007 12.643V12.9567C2.91181 12.9787 2.92544 13.0038 2.941 13.0317C3.01211 13.1596 3.1233 13.347 3.27843 13.5742C3.58906 14.0292 4.07327 14.6401 4.76122 15.2516C6.12969 16.468 8.31691 17.7001 11.6001 17.7001C12.6302 17.7001 13.576 17.513 14.47 17.3143C14.7934 17.2424 15.114 17.4464 15.1858 17.7699C15.2577 18.0934 15.0538 18.4139 14.7303 18.4857C13.8242 18.6871 12.77 18.9001 11.6001 18.9001C7.98334 18.9001 5.52053 17.5321 3.96398 16.1485C3.18941 15.46 2.64237 14.7708 2.28736 14.2508C2.10967 13.9905 1.97945 13.7717 1.89235 13.6151C1.84879 13.5368 1.81595 13.474 1.7933 13.4292C1.78197 13.4068 1.77319 13.3889 1.76688 13.3758L1.75926 13.3599L1.75682 13.3547L1.75595 13.3528L1.75559 13.3521C1.75544 13.3517 1.7553 13.3514 2.30007 13.1L1.7553 13.3514C1.71892 13.2726 1.70007 13.1868 1.70007 13.1V12.5C1.70007 12.4137 1.71868 12.3285 1.75462 12.25L2.30007 12.5C1.75462 12.25 1.75472 12.2498 1.75483 12.2496L1.75505 12.2491L1.75559 12.2479L1.75698 12.2449L1.76101 12.2364L1.77417 12.2091C1.78523 12.1864 1.80092 12.1551 1.82144 12.1158C1.86248 12.0373 1.92288 11.927 2.00429 11.7913C2.16702 11.5201 2.41429 11.1463 2.75932 10.7217C3.44925 9.87247 4.5337 8.81532 6.11757 7.97059C6.40996 7.81465 6.7734 7.92527 6.92934 8.21765ZM7.6001 9.69995C7.4001 10.2 7.30005 10.8 7.30005 11.4C7.30005 13.8 9.2001 15.7 11.6001 15.7C11.8145 15.7 12.0001 15.6712 12.1724 15.6446C12.3216 15.6215 12.4609 15.6 12.6001 15.6L7.6001 9.69995Z" fill="currentColor" />
</svg>
