<svg width="24" height="24" viewBox="0 0 24 24" fill="none" xmlns="http://www.w3.org/2000/svg">
<path d="M21.4 10.7962L12.328 2.72223C12.139 2.55923 11.86 2.55923 11.672 2.72223L2.59998 10.7962" stroke="currentColor" stroke-width="1.2" stroke-linecap="round" stroke-linejoin="round"/>
<path d="M3.80524 10.1018V20.9408C3.80524 21.2168 4.02924 21.4408 4.30524 21.4408H8.75124C9.02824 21.4408 9.25124 21.2168 9.25124 20.9408V14.1368C9.25124 13.8608 9.47524 13.6368 9.75124 13.6368H14.2482C14.5242 13.6368 14.7482 13.8608 14.7482 14.1368V20.9408C14.7482 21.2168 14.9722 21.4408 15.2482 21.4408H19.6942C19.9702 21.4408 20.1942 21.2168 20.1942 20.9408V9.90381" stroke="currentColor" stroke-width="1.2" stroke-linecap="round" stroke-linejoin="round"/>
<path d="M4.70367 8.72004V3.59204C4.70367 3.31604 4.92767 3.09204 5.20367 3.09204H6.63867C6.91467 3.09204 7.13867 3.31604 7.13867 3.59204V6.71304" stroke="currentColor" stroke-width="1.2" stroke-linecap="round" stroke-linejoin="round"/>
</svg>
