<svg width="24" height="24" viewBox="0 0 24 24" fill="none" xmlns="http://www.w3.org/2000/svg">
<path fill-rule="evenodd" clip-rule="evenodd" d="M7.90001 4.0489L4.31176 8.19995H7.90001V4.0489ZM3.49991 9.39995V20.8999H16.7001V16.5815C16.5684 16.5937 16.4349 16.5999 16.3001 16.5999C13.9252 16.5999 12.0001 14.6748 12.0001 12.3C12.0001 9.92515 13.9252 7.99988 16.3001 7.99988C16.4349 7.99988 16.5684 8.00609 16.7001 8.01824V3.29985H9.10001V8.29995C9.10001 8.5863 9.00194 8.87155 8.78678 9.08672C8.57161 9.30188 8.28636 9.39995 8.00001 9.39995H3.49991ZM17.9001 20.9999V16.2924C18.0992 16.2125 18.291 16.1182 18.4741 16.0106L21.4281 19.7706C21.6328 20.0312 22.01 20.0765 22.2706 19.8717C22.5312 19.667 22.5764 19.2898 22.3717 19.0293L19.4143 15.265C20.149 14.4935 20.6 13.4494 20.6 12.3C20.6 10.4906 19.4825 8.94221 17.9001 8.30742V3.19985C17.9001 2.9135 17.802 2.62826 17.5868 2.41309C17.3717 2.19792 17.0864 2.09985 16.8001 2.09985H8.50001C8.05006 2.09985 7.79744 2.35356 7.6859 2.46558L7.67585 2.47566C7.66558 2.48593 7.65569 2.49657 7.64619 2.50755L2.55723 8.3947C2.29867 8.66713 2.29955 8.97197 2.29989 9.08863L2.29991 9.09988V20.9999C2.29991 21.2863 2.39798 21.5715 2.61315 21.7867C2.82832 22.0018 3.11357 22.0999 3.39991 22.0999H16.8001C17.0864 22.0999 17.3717 22.0018 17.5868 21.7867C17.802 21.5715 17.9001 21.2863 17.9001 20.9999ZM6.39991 16.8999C6.06854 16.8999 5.79991 17.1685 5.79991 17.4999C5.79991 17.8313 6.06854 18.0999 6.39991 18.0999H12.6001C12.9315 18.0999 13.2001 17.8313 13.2001 17.4999C13.2001 17.1685 12.9315 16.8999 12.6001 16.8999H6.39991ZM5.79991 14.1999C5.79991 13.8685 6.06854 13.5999 6.39991 13.5999H9.69996C10.0313 13.5999 10.3 13.8685 10.3 14.1999C10.3 14.5312 10.0313 14.7999 9.69996 14.7999H6.39991C6.06854 14.7999 5.79991 14.5312 5.79991 14.1999ZM16.3001 9.19988C14.588 9.19988 13.2001 10.5878 13.2001 12.3C13.2001 14.012 14.588 15.3999 16.3001 15.3999C18.0121 15.3999 19.4 14.012 19.4 12.3C19.4 10.5878 18.0121 9.19988 16.3001 9.19988Z" fill="#1A1A1A"/>
</svg>
