<svg width="24" height="24" viewBox="0 0 24 24" fill="none" xmlns="http://www.w3.org/2000/svg">
<path d="M9.93045 10.4117H3.48128C3.19251 10.4117 3 10.2192 3 9.93045V3.48128C3 3.19251 3.19251 3 3.48128 3H9.93045C10.2192 3 10.4117 3.19251 10.4117 3.48128V9.93045C10.4117 10.123 10.123 10.4117 9.93045 10.4117Z" stroke="currentColor" stroke-width="1.3177" stroke-miterlimit="10" stroke-linecap="round" stroke-linejoin="round"/>
<path d="M20.5187 10.4117H14.0695C13.7808 10.4117 13.5883 10.2192 13.5883 9.93045V3.48128C13.5883 3.19251 13.7808 3 14.0695 3H20.5187C20.8075 3 21 3.19251 21 3.48128V9.93045C21 10.123 20.7112 10.4117 20.5187 10.4117Z" stroke="currentColor" stroke-width="1.3177" stroke-miterlimit="10" stroke-linecap="round" stroke-linejoin="round"/>
<path d="M9.93045 21H3.48128C3.19251 21 3 20.8075 3 20.5187V14.0695C3 13.7808 3.19251 13.5883 3.48128 13.5883H9.93045C10.2192 13.5883 10.4117 13.7808 10.4117 14.0695V20.5187C10.4117 20.8075 10.123 21 9.93045 21Z" stroke="currentColor" stroke-width="1.3177" stroke-miterlimit="10" stroke-linecap="round" stroke-linejoin="round"/>
<path d="M20.5187 21H14.0695C13.7808 21 13.5883 20.8075 13.5883 20.5187V14.0695C13.5883 13.7808 13.7808 13.5883 14.0695 13.5883H20.5187C20.8075 13.5883 21 13.7808 21 14.0695V20.5187C21 20.8075 20.7112 21 20.5187 21Z" stroke="currentColor" stroke-width="1.3177" stroke-miterlimit="10" stroke-linecap="round" stroke-linejoin="round"/>
</svg>
