<svg width="21" height="21" viewBox="0 0 21 21" fill="none" xmlns="http://www.w3.org/2000/svg">
<path fill-rule="evenodd" clip-rule="evenodd" d="M15.6809 6.63577C15.9373 6.84561 15.9751 7.22362 15.7653 7.48009L9.46525 15.18C9.357 15.3123 9.19745 15.3922 9.02667 15.3995C8.85588 15.4069 8.69006 15.341 8.57085 15.2185L4.97075 11.5186C4.73967 11.2811 4.74486 10.9012 4.98236 10.6701C5.21986 10.439 5.59972 10.4442 5.83081 10.6817L8.96215 13.8999L14.8366 6.72019C15.0464 6.46373 15.4244 6.42593 15.6809 6.63577Z" fill="#008722"/>
<path fill-rule="evenodd" clip-rule="evenodd" d="M10.4003 1.90007C5.54019 1.90007 1.60039 5.83987 1.60039 10.7C1.60039 15.5601 5.54021 19.5001 10.4003 19.5001C15.2604 19.5001 19.2004 15.5601 19.2004 10.7C19.2004 5.83989 15.2604 1.90007 10.4003 1.90007ZM0.400391 10.7C0.400391 5.17713 4.87745 0.700073 10.4003 0.700073C15.9231 0.700073 20.4004 5.17711 20.4004 10.7C20.4004 16.2228 15.9231 20.7001 10.4003 20.7001C4.87743 20.7001 0.400391 16.2228 0.400391 10.7Z" fill="#008722"/>
</svg>
