<svg width="21" height="21" viewBox="0 0 21 21" fill="none" xmlns="http://www.w3.org/2000/svg">
<path fill-rule="evenodd" clip-rule="evenodd" d="M1.60039 10.4C1.60039 5.53992 5.54028 1.60002 10.4004 1.60002C15.2605 1.60002 19.2004 5.53992 19.2004 10.4C19.2004 15.2601 15.2605 19.2 10.4004 19.2C5.54028 19.2 1.60039 15.2601 1.60039 10.4ZM10.4004 0.400024C4.87754 0.400024 0.400391 4.87718 0.400391 10.4C0.400391 15.9229 4.87754 20.4 10.4004 20.4C15.9232 20.4 20.4004 15.9229 20.4004 10.4C20.4004 4.87718 15.9232 0.400024 10.4004 0.400024ZM9.40038 9.00002V14H8.80038C8.70038 13.9 8.50038 14 8.40038 14.1C8.20038 14.1 8.20038 14.3 8.20038 14.4V14.7C8.20038 14.8 8.30038 14.9 8.40038 15C8.50038 15.1 8.60038 15.1 8.80038 15.1H12.1004C12.2004 15.1 12.4004 15.1 12.5004 15C12.7004 15 12.7004 14.8 12.7004 14.7V14.4C12.7004 14.3 12.6004 14.2 12.5004 14.1C12.4004 14 12.3004 14 12.1004 14H11.5004V8.20002C11.6004 8.00002 11.5004 7.90002 11.4004 7.80002C11.3004 7.70002 11.2004 7.70002 11.0004 7.70002H8.80038C8.70038 7.70002 8.50038 7.70002 8.40038 7.80002C8.30038 7.90002 8.30038 8.10002 8.30038 8.20002V8.50002C8.20038 8.70002 8.30038 8.80002 8.40038 8.90002C8.50038 9.00002 8.60038 9.00002 8.80038 9.00002H9.40038ZM11.3004 4.80002C11.1004 4.50002 10.8004 4.40002 10.5004 4.40002C10.2004 4.40002 9.90038 4.50002 9.70038 4.80002C9.30038 5.20002 9.30038 5.90002 9.70038 6.40002C10.1004 6.80002 10.8004 6.80002 11.3004 6.40002C11.7004 5.90002 11.7004 5.20002 11.3004 4.80002Z" fill="#006887"/>
</svg>
