<svg width="23" height="23" viewBox="0 0 23 23" fill="none" xmlns="http://www.w3.org/2000/svg">
<path fill-rule="evenodd" clip-rule="evenodd" d="M10.748 2.44903L2.26274 10.9343C1.95032 11.2467 1.95032 11.7533 2.26274 12.0657L10.748 20.551C11.0604 20.8634 11.567 20.8634 11.8794 20.551L20.3647 12.0657C20.6771 11.7533 20.6771 11.2467 20.3647 10.9343L11.8794 2.44903C11.567 2.13661 11.0604 2.13661 10.748 2.44903ZM1.41421 10.0858C0.633165 10.8668 0.633165 12.1332 1.41421 12.9142L9.89949 21.3995C10.6805 22.1805 11.9469 22.1805 12.7279 21.3995L21.2132 12.9142C21.9943 12.1332 21.9943 10.8668 21.2132 10.0858L12.7279 1.60051C11.9469 0.819457 10.6805 0.819457 9.89949 1.60051L1.41421 10.0858Z" fill="#871E1E"/>
<path d="M10.5216 16.5767C10.2607 16.2944 10.1302 15.8708 10.1302 15.4473C10.1302 15.0237 10.2607 14.6001 10.5216 14.3178C10.7825 14.0354 11.1738 13.8942 11.5651 13.8942C11.9564 13.8942 12.3478 14.0354 12.6086 14.3178C12.8695 14.6001 13 15.0237 13 15.4473C13 15.8708 12.8695 16.2944 12.6086 16.5767C12.3478 16.8591 11.9564 17 11.5651 17C11.1738 17 10.7825 16.8591 10.5216 16.5767ZM11.1738 5H11.8259C12.4781 5 12.8694 5.56491 12.8694 6.2708L12.4781 11.7765C12.4781 12.3412 11.9563 12.7647 11.4346 12.7647C10.9128 12.7647 10.3914 12.3412 10.3914 11.7765L10 6.2708C10.1304 5.56491 10.652 5 11.1738 5Z" fill="#871E1E"/>
</svg>
