<svg width="21" height="18" viewBox="0 0 21 18" fill="none" xmlns="http://www.w3.org/2000/svg">
<path fill-rule="evenodd" clip-rule="evenodd" d="M8.41407 1.47208C9.43602 0.0668923 11.5521 0.00913632 12.5036 1.49977L20.2018 13.2971L20.2104 13.3106C21.2542 15.0068 20.073 17.1249 18.0995 17.1249H2.79945C0.832318 17.1249 -0.370452 14.9025 0.698359 13.2949L8.39682 1.4971C8.40236 1.48861 8.40811 1.48027 8.41407 1.47208ZM1.69861 13.9579L9.39282 2.16662C9.97217 1.3846 11.0459 1.44429 11.4932 2.14713L19.1922 13.9457C19.7417 14.8482 19.1237 15.9249 18.0995 15.9249H2.79945C1.76767 15.9249 1.17051 14.75 1.69861 13.9579ZM9.39929 13.4001C9.39929 13.7001 9.49934 14.0002 9.69934 14.2002C9.89934 14.4002 10.1994 14.5 10.4994 14.5C10.7994 14.5 11.0994 14.4002 11.2994 14.2002C11.4994 14.0002 11.5995 13.7001 11.5995 13.4001C11.5995 13.1001 11.4994 12.8001 11.2994 12.6001C11.0994 12.4001 10.7994 12.3 10.4994 12.3C10.1994 12.3 9.89934 12.4001 9.69934 12.6001C9.49934 12.8001 9.39929 13.1001 9.39929 13.4001ZM10.6993 5.99998H10.1993C9.79934 5.99998 9.39944 6.40013 9.29944 6.90013L9.59949 10.8C9.59949 11.2 9.99929 11.5 10.3993 11.5C10.7993 11.5 11.1993 11.2 11.1993 10.8L11.4994 6.90013C11.4994 6.40013 11.1993 5.99998 10.6993 5.99998Z" fill="#B99200"/>
</svg>
