<svg width="24" height="24" viewBox="0 0 24 24" fill="none" xmlns="http://www.w3.org/2000/svg">
<path d="M15.3333 2.5L19.3333 4.16666C19.5 4.25 19.5834 4.41666 19.5834 4.58333L15.4999 15.7501" stroke="currentColor" stroke-width="1.2" stroke-miterlimit="10" stroke-linecap="round" stroke-linejoin="round"/>
<path d="M7.58331 13.4167V2.91667C7.58331 2.75 7.7501 2.58342 7.91677 2.58342H15.0833C15.25 2.58342 15.4168 2.75 15.4168 2.91667V15.8333C15.4168 16 15.25 16.1668 15.0833 16.1668H9.41681" stroke="currentColor" stroke-width="1.2" stroke-miterlimit="10" stroke-linecap="round" stroke-linejoin="round"/>
<path d="M11.5001 10.6667C12.2365 10.6667 12.8333 10.0697 12.8333 9.33328C12.8333 8.5969 12.2365 8.00007 11.5001 8.00007C10.7637 8.00007 10.1667 8.5969 10.1667 9.33328C10.1667 10.0697 10.7637 10.6667 11.5001 10.6667Z" stroke="currentColor" stroke-width="1.2" stroke-miterlimit="10" stroke-linecap="round" stroke-linejoin="round"/>
<path d="M15.1667 4.58333C14.25 4.58333 13.5 3.83333 13.5 2.91666" stroke="currentColor" stroke-width="1.2" stroke-miterlimit="10" stroke-linecap="round" stroke-linejoin="round"/>
<path d="M7.83331 4.58333C8.74998 4.58333 9.49998 3.83333 9.49998 2.91666" stroke="currentColor" stroke-width="1.2" stroke-miterlimit="10" stroke-linecap="round" stroke-linejoin="round"/>
<path d="M15.1667 13.9166C14.25 13.9166 13.5 14.6666 13.5 15.5833" stroke="currentColor" stroke-width="1.2" stroke-miterlimit="10" stroke-linecap="round" stroke-linejoin="round"/>
<path d="M7.50008 10.4166L5.33333 12.1667C4.83333 12.5834 4.5 13.2499 4.5 13.9166V21.5H11V18.9166C11 18.9166 12.25 18.25 12.25 16.75V16.25" stroke="currentColor" stroke-width="1.2" stroke-miterlimit="10" stroke-linecap="round" stroke-linejoin="round"/>
<path d="M5.83344 15.1665C5.83344 15.1665 8.83343 12.2498 9.58343 11.4165C10.3334 10.6665 11.25 12.4999 10.5 13.5833C10.1666 13.9999 8.83331 15.5 8.83331 15.5C9.5833 17.1666 8.41664 18.4998 8.41664 18.4998" stroke="currentColor" stroke-width="1.2" stroke-miterlimit="10" stroke-linecap="round" stroke-linejoin="round"/>
</svg>
