<svg width="24" height="24" viewBox="0 0 24 24" fill="none" xmlns="http://www.w3.org/2000/svg">
<path d="M18.9001 16.8999C17.5001 19.5999 14.7001 21.5 11.4001 21.5C6.70015 21.5 3 17.7 3 13C3 8.3 6.80015 4.5 11.4001 4.5C12.4001 4.5 13.4 4.7 14.3 5" stroke="currentColor" stroke-width="1.2" stroke-miterlimit="10" stroke-linecap="round" stroke-linejoin="round"/>
<path d="M13.7 13.1002C13.3 12.8002 12.7 12.5001 12 12.3001V10.0001C12.4 10.1001 12.8001 10.3001 13.1001 10.5001C13.3001 10.7001 13.7001 10.7001 13.9001 10.5001C14.0001 10.4001 14.1001 10.2002 14.1001 10.1002C14.1001 10.0002 14 9.8002 13.8 9.6002C13.3 9.2002 12.7 9 12 8.9V8.70005C12 8.60005 11.9 8.40015 11.8 8.30015C11.6 8.10015 11.2 8.10015 11 8.30015C10.9 8.40015 10.8 8.50005 10.8 8.70005V8.9C10.2 9 9.59995 9.2002 9.19995 9.6002C8.69995 10.0002 8.5 10.5 8.5 11.2C8.5 11.8 8.7001 12.3 9.1001 12.7C9.5001 13 10 13.3001 10.8 13.5001V15.9C10.2 15.8 9.69995 15.5002 9.19995 15.1002C8.99995 14.9002 8.60015 14.9002 8.40015 15.1002C8.30015 15.2002 8.19995 15.4001 8.19995 15.5001C8.19995 15.7001 8.3 15.9001 8.5 16.0001C9.2 16.6001 10 16.9001 10.8 17.0001V17.6002C10.8 17.7002 10.9 17.9001 11 18.0001C11.1 18.1001 11.2001 18.2 11.4001 18.2C11.5001 18.2 11.7 18.1001 11.8 18.0001C11.9 17.9001 12 17.8002 12 17.6002V17.0001C12.7 16.9001 13.2001 16.7001 13.6001 16.3001C14.1001 15.9001 14.3 15.4 14.3 14.7C14.3 14 14.1 13.5002 13.7 13.1002ZM12 13.6002C12.4 13.7002 12.7001 13.9001 12.9001 14.0001C13.1001 14.2001 13.2 14.4 13.2 14.7C13.2 15 13.1001 15.3 12.9001 15.4C12.7001 15.6 12.4001 15.7 12.1001 15.7V13.6002H12ZM10.1001 11.6002C9.9001 11.4002 9.80005 11.2 9.80005 10.9C9.80005 10.6 9.9001 10.4 10.1001 10.2C10.3001 10 10.5001 9.9 10.9001 9.9V12.0001C10.5001 11.9001 10.2001 11.8002 10.1001 11.6002Z" fill="#444444"/>
<path d="M21.6001 5.3999L18.9001 2.5L16.3 5.3999" stroke="currentColor" stroke-width="1.2" stroke-miterlimit="10" stroke-linecap="round" stroke-linejoin="round"/>
<path d="M18.9001 3.3999V13.7" stroke="currentColor" stroke-width="1.2" stroke-miterlimit="10" stroke-linecap="round" stroke-linejoin="round"/>
</svg>
