<svg width="24" height="24" viewBox="0 0 24 24" fill="none" xmlns="http://www.w3.org/2000/svg">
<path d="M14.7896 5.6001C14.0004 5.2001 13.014 5 12.1262 5C8.57489 5 5.71415 7.9 5.71415 11.5V11.6001V15.4001C5.71415 15.5001 5.61531 15.7 5.51666 15.8L3.64248 17.6001C3.34654 17.9001 3.54388 18.5 3.93846 18.5H20.0179C20.4125 18.5 20.7082 18.0001 20.3136 17.6001L18.5382 15.8C18.4395 15.7 18.3407 15.6001 18.3407 15.4001V13.1001" stroke="currentColor" stroke-width="1.2" stroke-miterlimit="10" stroke-linecap="round" stroke-linejoin="round"/>
<path d="M13.5072 4.80005H10.6465V3.40015C10.6465 2.60015 11.2383 2 12.0275 2C12.8167 2 13.4085 2.60015 13.4085 3.40015V4.80005H13.5072Z" fill="currentColor"/>
<path d="M12.0275 22C10.9424 22 10.0546 21.1 10.0546 20V19.6001H13.9017V20C14.0003 21.1 13.1126 22 12.0275 22Z" fill="currentColor"/>
<path d="M16.9999 12C18.6567 12 20 10.6567 20 8.99989C20 7.34305 18.6567 6 16.9999 6C15.3431 6 14 7.34305 14 8.99989C14 10.6567 15.3431 12 16.9999 12Z" fill="#F95151"/>
</svg>
