<svg width="24" height="24" viewBox="0 0 24 24" fill="none" xmlns="http://www.w3.org/2000/svg"><path fill-rule="evenodd" clip-rule="evenodd" d="M11.9028 3.5C9.66287 3.5 7.85449 5.30855 7.85449 7.54855V10.5322H9.37061V7.54852C9.37061 6.11117 10.5621 4.91931 11.9996 4.91931C13.4371 4.91931 14.6286 6.11117 14.6286 7.54852V10.5322H16.048V7.54855C16.048 5.30855 14.2396 3.5 11.9997 3.5H11.9028ZM13.6286 10.5322V7.54852C13.6286 6.66331 12.8846 5.91931 11.9996 5.91931C11.1145 5.91931 10.3706 6.66331 10.3706 7.54852V10.5322H13.6286ZM7.35449 11.5323L7.34841 11.5322H6.57999C6.27564 11.5322 6.01562 11.7922 6.01562 12.0968V19.9354C6.01562 20.24 6.27564 20.5 6.57999 20.5H17.4188C17.5991 20.5 17.7376 20.4406 17.8267 20.357C17.9109 20.2781 17.9832 20.1481 17.9832 19.9354V12.0968C17.9832 11.7922 17.7232 11.5322 17.4188 11.5322H16.5541L16.548 11.5323L16.5419 11.5322H7.36057L7.35449 11.5323ZM6.85449 7.54855V10.5322H6.57999C5.72307 10.5322 5.01562 11.2402 5.01562 12.0968V19.9354C5.01562 20.792 5.72307 21.5 6.57999 21.5H17.4188C17.8192 21.5 18.2129 21.3658 18.5108 21.0864C18.8137 20.8024 18.9832 20.4 18.9832 19.9354V12.0968C18.9832 11.2402 18.2758 10.5322 17.4188 10.5322H17.048V7.54855C17.048 4.75633 14.792 2.5 11.9997 2.5H11.9028C9.11052 2.5 6.85449 4.75633 6.85449 7.54855ZM12.4995 16.5419C12.9455 16.3484 13.2574 15.9042 13.2574 15.3871C13.2574 14.6923 12.6941 14.129 11.9993 14.129C11.3045 14.129 10.7412 14.6923 10.7412 15.3871C10.7412 15.9043 11.0533 16.3487 11.4995 16.542V18.0968C11.4995 18.3729 11.7234 18.5968 11.9995 18.5968C12.2757 18.5968 12.4995 18.3729 12.4995 18.0968V16.5419Z" fill="#454A54"/></svg>