<svg width="24" height="24" viewBox="0 0 24 24" fill="none" xmlns="http://www.w3.org/2000/svg">
<path d="M17.3192 14.1634H2.53192C2.21277 14.1634 2 13.9622 2 13.6603V4.50315C2 4.20126 2.21277 4 2.53192 4H17.3192C17.6384 4 17.8511 4.20126 17.8511 4.50315V13.6603C17.8511 13.8615 17.6384 14.1634 17.3192 14.1634Z" stroke="currentColor" stroke-width="1.5" stroke-miterlimit="10" stroke-linecap="round" stroke-linejoin="round"/>
<path d="M20.4042 9.83632H21.4681C21.7872 9.83632 22 10.0376 22 10.3395V19.4969C22 19.7987 21.7872 20 21.4681 20H6.68079C6.36163 20 6.14886 19.7987 6.14886 19.4969V16.5787" stroke="currentColor" stroke-width="1.5" stroke-miterlimit="10" stroke-linecap="round" stroke-linejoin="round"/>
<path d="M18.0638 6.11307H2.21271V8.12566H18.0638V6.11307Z" fill="#444444"/>
<path d="M4.87231 11.1446H8.17007" stroke="currentColor" stroke-width="1.5" stroke-miterlimit="10" stroke-linecap="round" stroke-linejoin="round"/>
<path d="M10.5107 11.1446H12.1065" stroke="currentColor" stroke-width="1.5" stroke-miterlimit="10" stroke-linecap="round" stroke-linejoin="round"/>
</svg>
