<svg width="24" height="24" viewBox="0 0 24 24" fill="none" xmlns="http://www.w3.org/2000/svg">
<path d="M17.3001 16.6V20.9C17.3001 21.2 17.1 21.5 16.7 21.5H2.80011C2.50011 21.5 2.20001 21.3 2.20001 20.9V3.19995C2.20001 2.89995 2.40011 2.59998 2.80011 2.59998H16.7C17 2.59998 17.3001 2.79995 17.3001 3.19995V7" stroke="currentColor" stroke-width="1.2" stroke-miterlimit="10" stroke-linecap="round" stroke-linejoin="round"/>
<path d="M6.80011 7.80005C7.46285 7.80005 8.00006 7.26272 8.00006 6.59998C8.00006 5.93723 7.46285 5.40002 6.80011 5.40002C6.13737 5.40002 5.60016 5.93723 5.60016 6.59998C5.60016 7.26272 6.13737 7.80005 6.80011 7.80005Z" fill="#444444"/>
<path d="M7.89996 8.09998C8.59996 8.19998 9.00006 8.8 9.00006 9.5V10.3C9.00006 10.6 8.80006 10.8 8.50006 10.8H5.00006C4.70006 10.8 4.50006 10.6 4.50006 10.3V9.5C4.50006 8.8 5.00016 8.19998 5.60016 8.09998H7.89996Z" fill="#444444"/>
<path d="M4.89996 15H9.50006" stroke="currentColor" stroke-width="1.2" stroke-miterlimit="10" stroke-linecap="round" stroke-linejoin="round"/>
<path d="M4.89996 17.8H9.50006" stroke="currentColor" stroke-width="1.2" stroke-miterlimit="10" stroke-linecap="round" stroke-linejoin="round"/>
<path d="M17.3001 16.6C19.7854 16.6 21.8001 14.5853 21.8001 12.1C21.8001 9.61469 19.7854 7.59998 17.3001 7.59998C14.8148 7.59998 12.8001 9.61469 12.8001 12.1C12.8001 14.5853 14.8148 16.6 17.3001 16.6Z" stroke="currentColor" stroke-width="1.2" stroke-miterlimit="10" stroke-linecap="round" stroke-linejoin="round"/>
<path d="M16 12.0454L17.0526 13L19 11" stroke="currentColor" stroke-width="1.2" stroke-miterlimit="10" stroke-linecap="round" stroke-linejoin="round"/>
</svg>
