<svg width="24" height="24" viewBox="0 0 24 24" fill="none" xmlns="http://www.w3.org/2000/svg">
<path d="M12 21C16.9706 21 21 16.9706 21 12C21 7.02944 16.9706 3 12 3C7.02939 3 3 7.02944 3 12C3 16.9706 7.02939 21 12 21Z" stroke="currentColor" stroke-width="1.2" stroke-miterlimit="10" stroke-linecap="round" stroke-linejoin="round"/>
<path d="M11.7127 14.2738C11.5212 14.2738 11.4254 14.2737 11.4254 14.179C11.4254 14.0843 11.3298 13.9895 11.3298 13.8947L11.1384 12.2843C11.1384 12.1895 11.1382 12.0001 11.234 11.9054C11.3297 11.8107 11.4255 11.7157 11.5212 11.7157C12.2872 11.621 12.9573 11.4317 13.3403 11.1475C13.8191 10.7685 14.0107 10.2948 14.0107 9.72641C14.0107 9.15798 13.8191 8.7789 13.4362 8.39995C13.0532 8.021 12.5744 7.83167 11.9041 7.83167C11.0424 7.83167 10.1807 8.21057 9.5105 8.96846C9.41475 9.0632 9.22335 9.15789 9.12761 9.15789C8.93612 9.15789 8.84046 9.0632 8.74472 8.96846C8.64897 8.87373 8.55304 8.77908 8.55304 8.58961C8.55304 8.40014 8.64897 8.30526 8.74472 8.21052C9.60643 7.26315 10.6594 6.78947 11.9041 6.78947C12.8616 6.78947 13.6276 7.07382 14.2978 7.64224C14.968 8.21066 15.1596 8.87377 15.1596 9.72641C15.1596 10.579 14.8723 11.2421 14.2978 11.7157C13.7233 12.1894 12.9575 12.4736 12.0958 12.6631L12 13.8947C12.0957 14.1789 11.9999 14.2738 11.7127 14.2738ZM11.0425 16.1686C11.0425 15.9791 11.1382 15.7896 11.234 15.6949C11.3297 15.6001 11.5212 15.5052 11.7127 15.5052C11.9042 15.5052 12.0957 15.6001 12.1914 15.6949C12.2872 15.7896 12.3829 15.9791 12.3829 16.1686V16.4526C12.3829 16.6421 12.2872 16.8315 12.1914 16.9263C12.0957 17.021 11.9042 17.1159 11.7127 17.1159C11.5212 17.1159 11.3297 17.021 11.234 16.9263C11.1382 16.8315 11.0425 16.6421 11.0425 16.4526V16.1686Z" fill="#444444" stroke="currentColor" stroke-width="0.5" stroke-miterlimit="10"/>
</svg>
