<svg width="24" height="24" viewBox="0 0 24 24" fill="none" xmlns="http://www.w3.org/2000/svg">
  <path fill-rule="evenodd" clip-rule="evenodd" d="M5.97415 13.9287C3.72901 11.6835 3.70976 8.08858 5.89922 5.89913C8.08865 3.7097 11.6834 3.72908 13.9286 5.97424C16.1737 8.21941 16.1931 11.8142 14.0037 14.0036C11.8142 16.1931 8.21929 16.1738 5.97415 13.9287ZM4.99872 4.99863C2.29775 7.6996 2.34548 12.101 5.07365 14.8292C7.64844 17.404 11.7136 17.5912 14.4331 15.3336L19.2405 20.141C19.4892 20.3897 19.8923 20.3897 20.141 20.141C20.3897 19.8923 20.3897 19.4892 20.141 19.2405L15.3336 14.4331C17.5913 11.7136 17.4039 7.64854 14.8291 5.07375C12.1009 2.3456 7.69971 2.29764 4.99872 4.99863Z" fill="currentColor" />
  <path fill-rule="evenodd" clip-rule="evenodd" d="M7.53033 6.46967C7.23744 6.17678 6.76257 6.17677 6.46967 6.46967C6.17678 6.76256 6.17677 7.23743 6.46967 7.53033L8.93935 10L6.46967 12.4698C6.17677 12.7627 6.17678 13.2375 6.46967 13.5304C6.76257 13.8233 7.23744 13.8233 7.53033 13.5304L10 11.0607L12.4697 13.5304C12.7626 13.8233 13.2374 13.8233 13.5303 13.5304C13.8232 13.2375 13.8232 12.7627 13.5303 12.4698L11.0607 10L13.5303 7.53033C13.8232 7.23743 13.8232 6.76256 13.5303 6.46967C13.2374 6.17677 12.7626 6.17678 12.4697 6.46967L10 8.93938L7.53033 6.46967Z" fill="currentColor" />
</svg>
  