<svg width="24" height="24" viewBox="0 0 24 24" fill="none" xmlns="http://www.w3.org/2000/svg">
<path fill-rule="evenodd" clip-rule="evenodd" d="M6.80251 14.298C4.68694 12.1824 4.6688 8.79491 6.7319 6.73181C8.79497 4.66874 12.1823 4.687 14.2979 6.80259C16.3363 8.84099 16.4276 12.06 14.5862 14.1376C14.4805 14.1621 14.3802 14.2155 14.2979 14.2978C14.2156 14.3801 14.1622 14.4804 14.1377 14.5861C12.0601 16.4276 8.84089 16.3363 6.80251 14.298ZM14.7733 15.6218C12.2108 17.7491 8.38019 17.5727 5.95398 15.1465C3.38325 12.5758 3.33828 8.42837 5.88337 5.88329C8.42848 3.33818 12.5757 3.38336 15.1464 5.95407C17.5726 8.38025 17.7492 12.2107 15.6219 14.7732L20.0254 19.1767C20.2597 19.4111 20.2597 19.791 20.0254 20.0253C19.7911 20.2596 19.4112 20.2596 19.1769 20.0253L14.7733 15.6218Z" fill="currentColor"/>
</svg>
