<svg width="32" height="32" viewBox="0 0 32 32" fill="none" xmlns="http://www.w3.org/2000/svg"><path fill-rule="evenodd" clip-rule="evenodd" d="M8.11846 19.1376C5.00876 16.0279 4.9821 11.0486 8.01468 8.01602C11.0472 4.98348 16.0263 5.01032 19.136 8.12006C22.2457 11.2298 22.2726 16.2088 19.24 19.2414C16.2075 22.274 11.2282 22.2473 8.11846 19.1376ZM6.76742 6.76876C3.02636 10.5098 3.09246 16.6061 6.8712 20.3849C10.4376 23.9513 16.0685 24.2106 19.8352 21.0832L26.494 27.7421C26.8385 28.0865 27.3969 28.0865 27.7413 27.7421C28.0857 27.3977 28.0857 26.8392 27.7413 26.4948L21.0824 19.8359C24.2092 16.0692 23.9495 10.439 20.3833 6.8728C16.6046 3.09409 10.5085 3.02766 6.76742 6.76876ZM8.80511 8.80573C9.21079 8.40005 9.86853 8.40006 10.2742 8.80574L13.6949 12.2265L17.1156 8.80574C17.5213 8.40006 18.179 8.40005 18.5847 8.80573C18.9904 9.21141 18.9904 9.86915 18.5847 10.2748L15.164 13.6956L18.5847 17.1164C18.9904 17.5221 18.9904 18.1798 18.5847 18.5855C18.179 18.9911 17.5213 18.9911 17.1156 18.5855L13.6949 15.1647L10.2742 18.5855C9.86853 18.9911 9.21079 18.9911 8.80511 18.5855C8.39942 18.1798 8.39942 17.5221 8.80509 17.1164L12.2258 13.6956L8.80509 10.2748C8.39942 9.86915 8.39942 9.21141 8.80511 8.80573Z" fill="#991717"/></svg>