<svg width="24" height="24" viewBox="0 0 24 24" fill="none" xmlns="http://www.w3.org/2000/svg">
<path fill-rule="evenodd" clip-rule="evenodd" d="M10.5238 2.5C10.2476 2.5 10.0238 2.72386 10.0238 3V4.9032C9.4744 5.06433 8.91997 5.28361 8.39937 5.59706L7.06777 4.26546C6.8725 4.07019 6.55592 4.07019 6.36066 4.26546L4.26546 6.36066C4.07019 6.55592 4.07019 6.8725 4.26546 7.06777L5.61748 8.41978C5.35045 8.91278 5.09025 9.45953 4.909 10.0238H3C2.72386 10.0238 2.5 10.2476 2.5 10.5238V13.4762C2.5 13.7524 2.72386 13.9762 3 13.9762H4.9032C5.06433 14.5256 5.28361 15.08 5.59706 15.6006L4.26546 16.9322C4.07019 17.1275 4.07019 17.4441 4.26546 17.6393L6.36066 19.7345C6.55592 19.9298 6.8725 19.9298 7.06777 19.7345L8.41978 18.3825C8.91278 18.6496 9.45953 18.9098 10.0238 19.091V21C10.0238 21.2761 10.2476 21.5 10.5238 21.5H13.4762C13.7524 21.5 13.9762 21.2761 13.9762 21V19.0968C14.5256 18.9357 15.0799 18.7164 15.6004 18.4029L16.9323 19.7346C17.1275 19.9298 17.4441 19.9298 17.6393 19.7345L19.7345 17.6393C19.9298 17.4441 19.9298 17.1275 19.7345 16.9322L18.3825 15.5802C18.6496 15.0872 18.9098 14.5405 19.091 13.9762H21C21.2761 13.9762 21.5 13.7524 21.5 13.4762V10.5238C21.5 10.2476 21.2761 10.0238 21 10.0238H19.0968C18.9357 9.4744 18.7164 8.91997 18.4029 8.39937L19.7345 7.06777C19.9298 6.8725 19.9298 6.55592 19.7345 6.36066L17.6393 4.26546C17.4441 4.0702 17.1275 4.07019 16.9323 4.26543L15.58 5.61748C15.0871 5.35046 14.5404 5.09026 13.9762 4.90901V3C13.9762 2.72386 13.7524 2.5 13.4762 2.5H10.5238ZM11.0238 5.28563V3.5H12.9762V5.28563C12.9762 5.51507 13.1324 5.71506 13.355 5.7707C14.0492 5.94425 14.7631 6.29766 15.4185 6.67214C15.6142 6.784 15.8606 6.75101 16.0201 6.5916L17.2858 5.32609L18.6739 6.71421L17.4084 7.97967C17.2356 8.1525 17.213 8.42495 17.3551 8.62384C17.7821 9.22168 18.0476 9.91839 18.2293 10.645C18.2849 10.8676 18.4849 11.0238 18.7144 11.0238H20.5V12.9762H18.7144C18.4849 12.9762 18.2849 13.1324 18.2293 13.355C18.0557 14.0492 17.7023 14.7634 17.3279 15.4187C17.216 15.6145 17.249 15.8609 17.4084 16.0203L18.6739 17.2858L17.2858 18.6739L16.0201 17.4084C15.8472 17.2356 15.5748 17.2131 15.3759 17.3551C14.7781 17.7822 14.0816 18.0476 13.355 18.2293C13.1324 18.2849 12.9762 18.4849 12.9762 18.7144V20.5H11.0238V18.7144C11.0238 18.4849 10.8676 18.2849 10.645 18.2293C9.95081 18.0557 9.23659 17.7023 8.58129 17.3279C8.38552 17.216 8.1391 17.249 7.97967 17.4084L6.71421 18.6739L5.32612 17.2858L6.59157 16.0203C6.7644 15.8475 6.78695 15.5751 6.64489 15.3762C6.21786 14.7783 5.95236 14.0816 5.7707 13.355C5.71506 13.1324 5.51507 12.9762 5.28563 12.9762H3.5V11.0238H5.28563C5.51507 11.0238 5.71506 10.8676 5.7707 10.645C5.94426 9.95081 6.29769 9.23659 6.67214 8.58129C6.78401 8.38552 6.75101 8.1391 6.59157 7.97967L5.32612 6.71421L6.71421 5.32612L7.97967 6.59157C8.1525 6.7644 8.42495 6.78695 8.62384 6.64489C9.22168 6.21786 9.91839 5.95236 10.645 5.7707C10.8676 5.71506 11.0238 5.51507 11.0238 5.28563ZM8.73804 11.9523C8.73804 10.1245 10.2198 8.64276 12.0476 8.64276C13.8754 8.64276 15.3571 10.1245 15.3571 11.9523C15.3571 13.7801 13.8754 15.2618 12.0476 15.2618C10.2198 15.2618 8.73804 13.7801 8.73804 11.9523ZM12.0476 7.64276C9.66749 7.64276 7.73804 9.57221 7.73804 11.9523C7.73804 14.3324 9.66749 16.2618 12.0476 16.2618C14.4277 16.2618 16.3571 14.3324 16.3571 11.9523C16.3571 9.57221 14.4277 7.64276 12.0476 7.64276Z" fill="currentColor"/>
</svg>
