<svg width="24" height="24" viewBox="0 0 24 24" fill="none" xmlns="http://www.w3.org/2000/svg">
  <path fill-rule="evenodd" clip-rule="evenodd" d="M3.04085 11.8683C3.02529 11.8963 3.01167 11.9214 2.99993 11.9434V12.2567C3.01166 12.2787 3.02529 12.3038 3.04085 12.3318C3.11196 12.4596 3.22315 12.647 3.37828 12.8742C3.6889 13.3292 4.17312 13.9401 4.86107 14.5515C6.22953 15.7679 8.41676 17 11.7 17C14.9832 17 17.1704 15.7679 18.5389 14.5515C19.2268 13.9401 19.711 13.3292 20.0217 12.8742C20.1768 12.647 20.288 12.4596 20.3591 12.3318C20.3747 12.3038 20.3883 12.2787 20.4 12.2567V11.9434C20.3883 11.9214 20.3747 11.8963 20.3591 11.8683C20.288 11.7405 20.1768 11.5531 20.0217 11.3258C19.711 10.8708 19.2268 10.26 18.5389 9.64845C17.5886 8.80371 16.2434 7.95143 14.4105 7.50946C15.3038 8.30867 15.8008 9.40556 16 10.8C16 13.2 14.1 15.1 11.7 15.1C9.29995 15.1 7.3999 13.2 7.3999 10.8C7.3999 9.48555 7.96988 8.32104 8.8798 7.53653C7.1028 7.9856 5.79235 8.82064 4.86107 9.64845C4.17313 10.26 3.68891 10.8708 3.37828 11.3258C3.22316 11.5531 3.11196 11.7405 3.04085 11.8683ZM12.232 7.21095C11.633 7.51844 11.2 8.13708 11.2 8.90002C11.2 9.90002 12.0001 10.8 13.1001 10.8C14.1001 10.8 15 10 15 8.90002C15 8.30604 14.7059 7.81003 14.4089 7.50908C13.7481 7.34985 13.0239 7.24395 12.232 7.21095ZM1.85515 12.6515L2.39993 12.4C1.85515 12.6515 1.8553 12.6518 1.85545 12.6521L1.8558 12.6529L1.85668 12.6547L1.85911 12.6599L1.86673 12.6759C1.87304 12.6889 1.88183 12.7068 1.89315 12.7292C1.9158 12.774 1.94864 12.8368 1.99221 12.9152C2.0793 13.0717 2.20952 13.2905 2.38722 13.5508C2.74222 14.0708 3.28927 14.7599 4.06384 15.4484C5.62039 16.832 8.0832 18.2 11.7 18.2C15.3168 18.2 17.7796 16.832 19.3361 15.4484C20.1107 14.7599 20.6577 14.0708 21.0127 13.5508C21.1904 13.2905 21.3206 13.0717 21.4077 12.9152C21.4513 12.8368 21.4841 12.774 21.5068 12.7292C21.5181 12.7068 21.5269 12.6889 21.5332 12.6759L21.5408 12.6599L21.5433 12.6547L21.5441 12.6529L21.5445 12.6521C21.5447 12.6518 21.5448 12.6515 21 12.4L21.5448 12.6515C21.5812 12.5726 21.6 12.4868 21.6 12.4V11.8C21.6 11.7132 21.5812 11.6274 21.5448 11.5486L21 11.8C21.5448 11.5486 21.5447 11.5483 21.5445 11.548L21.5441 11.5472L21.5433 11.5453L21.5408 11.5401L21.5332 11.5242C21.5269 11.5111 21.5181 11.4932 21.5068 11.4708C21.4842 11.4261 21.4513 11.3632 21.4077 11.2849C21.3207 11.1284 21.1904 10.9095 21.0127 10.6492C20.6577 10.1292 20.1107 9.44007 19.3361 8.75156C17.7796 7.36795 15.3168 5.99997 11.7 5.99997C8.08319 5.99997 5.62039 7.36795 4.06383 8.75156C3.28926 9.44007 2.74222 10.1292 2.38721 10.6492C2.20952 10.9095 2.0793 11.1284 1.99221 11.2849C1.94864 11.3632 1.9158 11.4261 1.89315 11.4708C1.88182 11.4932 1.87304 11.5111 1.86673 11.5242L1.85911 11.5401L1.85668 11.5453L1.8558 11.5472L1.85545 11.548C1.8553 11.5483 1.85515 11.5486 2.39993 11.8L1.85515 11.5486C1.81877 11.6274 1.79993 11.7132 1.79993 11.8V12.4C1.79993 12.4868 1.81877 12.5726 1.85515 12.6515Z" fill="currentColor" />
</svg>
