<svg width="820" height="312" viewBox="0 0 820 312" fill="none" xmlns="http://www.w3.org/2000/svg">
<g clip-path="url(#clip0_1303_9855)">
<path d="M934 -139H-114V451H934V-139Z" fill="#776DFF"/>
<path d="M333.313 137.359C334.904 136.925 336.494 136.346 337.651 135.477C338.953 134.609 339.965 133.595 340.688 132.148C341.411 130.845 341.7 129.253 341.7 127.371C341.7 125.489 341.266 123.897 340.254 122.45C339.242 121.002 338.085 119.844 336.639 118.976C337.507 118.107 338.374 117.239 339.097 116.225C339.82 115.212 340.254 113.91 340.254 112.607C340.254 110.146 339.676 108.264 338.519 106.816C337.362 105.369 335.772 104.211 333.747 103.632C331.723 102.908 329.554 102.619 327.096 102.619H314.082V138.083H327.963C329.843 137.938 331.578 137.649 333.313 137.359ZM322.035 108.988H326.372C327.529 108.988 328.397 109.133 329.12 109.422C329.843 109.712 330.421 110.146 331 110.58C331.433 111.159 331.723 111.883 331.723 112.751C331.723 113.62 331.433 114.199 330.855 114.778C330.277 115.357 329.554 115.646 328.686 115.936C327.819 116.225 326.806 116.37 325.65 116.37H322.035V108.988ZM322.035 131.424V122.884H327.819C329.409 122.884 330.711 123.318 331.723 124.042C332.735 124.766 333.168 125.924 333.168 127.371C333.168 128.24 332.88 128.963 332.446 129.687C332.012 130.266 331.289 130.701 330.566 130.99C329.698 131.28 328.831 131.424 327.819 131.424H322.035Z" fill="#1C1277"/>
<path d="M354.28 101.027L346.183 101.605V137.938H354.28V101.027Z" fill="#1C1277"/>
<path d="M363.679 137.359C364.981 138.227 366.716 138.662 368.885 138.662C370.042 138.662 371.198 138.517 372.355 138.227C373.512 137.938 374.669 137.504 375.825 136.925C376.982 136.346 377.994 135.767 378.862 135.188L380.886 137.938H385.369V112.607H377.127V129.832C376.693 130.121 376.115 130.411 375.391 130.7C374.669 131.135 373.946 131.424 373.367 131.569C372.644 131.859 371.921 131.859 371.343 131.859C370.33 131.859 369.463 131.424 369.029 130.7C368.451 129.977 368.306 128.963 368.306 127.95V112.317H360.208V128.674C360.208 130.556 360.498 132.293 361.076 133.74C361.366 135.333 362.378 136.491 363.679 137.359Z" fill="#1C1277"/>
<path d="M411.975 129.832C410.963 130.411 409.951 130.845 408.794 131.28C407.637 131.714 406.336 131.859 404.745 131.859C403.299 131.859 402.287 131.714 401.275 131.28C400.408 130.845 399.684 130.411 399.106 129.832C398.528 129.253 398.238 128.385 397.949 127.516H414V125.055C414 122.739 413.566 120.423 412.698 118.542C411.831 116.515 410.529 114.923 408.794 113.765C407.059 112.607 404.89 112.028 402.143 112.028C399.54 112.028 397.226 112.607 395.347 113.62C393.322 114.778 391.876 116.225 390.719 118.252C389.562 120.278 388.984 122.739 388.984 125.489C388.984 128.24 389.562 130.556 390.719 132.582C391.876 134.609 393.611 136.056 395.78 137.215C397.949 138.227 400.696 138.806 403.733 138.806C405.179 138.806 406.48 138.662 407.782 138.372C409.083 138.083 410.24 137.793 411.252 137.359C412.265 136.925 413.132 136.491 413.855 135.912L411.975 129.832ZM398.817 120.568C399.25 119.989 399.684 119.41 400.263 119.121C400.841 118.686 401.564 118.542 402.287 118.542C403.155 118.542 403.878 118.686 404.456 119.121C405.035 119.554 405.468 119.989 405.902 120.713C406.336 121.292 406.48 122.015 406.625 122.884H398.094C398.238 121.871 398.528 121.147 398.817 120.568Z" fill="#1C1277"/>
<path d="M442.485 117.818C441.475 115.791 439.882 114.344 438.004 113.33C436.121 112.317 433.812 111.738 431.207 111.738C429.905 111.738 428.749 112.028 427.592 112.462C427.448 112.607 427.158 112.607 427.014 112.751V101.027L418.916 101.605V137.938H422.965L424.555 136.201L424.7 136.346C425.712 137.07 426.724 137.648 427.736 137.938C428.749 138.372 429.905 138.517 430.917 138.517C433.665 138.517 435.979 137.938 438.004 136.925C440.029 135.912 441.475 134.319 442.485 132.293C443.501 130.266 444.074 127.95 444.074 125.055C444.074 122.16 443.501 119.844 442.485 117.818ZM434.969 128.674C434.532 129.687 433.954 130.556 433.233 131.135C432.507 131.714 431.496 132.003 430.484 132.003C429.472 132.003 428.46 131.714 427.448 131.28C427.303 131.135 427.158 130.99 427.014 130.99V119.699C427.158 119.554 427.303 119.554 427.448 119.41C428.46 118.831 429.327 118.542 430.339 118.542C431.496 118.542 432.366 118.831 433.233 119.41C433.954 119.989 434.68 120.713 435.111 121.726C435.542 122.739 435.832 123.897 435.832 125.345C435.69 126.503 435.4 127.661 434.969 128.674Z" fill="#1C1277"/>
<path d="M466.202 113.62C464.466 112.462 462.294 111.883 459.548 111.883C456.944 111.883 454.63 112.462 452.752 113.475C450.727 114.633 449.281 116.081 448.124 118.107C446.966 120.134 446.388 122.595 446.388 125.345C446.388 128.095 446.966 130.411 448.124 132.438C449.281 134.464 451.017 135.912 453.184 137.07C455.356 138.083 458.102 138.662 461.136 138.662C462.583 138.662 463.887 138.517 465.186 138.227C466.491 137.938 467.648 137.649 468.658 137.215C469.668 136.78 470.536 136.346 471.262 135.767L468.947 129.977C467.937 130.556 466.922 130.99 465.765 131.424C464.608 131.859 463.309 132.003 461.715 132.003C460.274 132.003 459.259 131.859 458.249 131.424C457.381 130.99 456.655 130.556 456.076 129.977C455.498 129.398 455.209 128.53 454.919 127.661H470.972V125.055C470.972 122.739 470.536 120.423 469.668 118.542C469.237 116.37 467.937 114.778 466.202 113.62ZM455.067 122.739C455.209 121.871 455.498 121.147 455.787 120.423C456.224 119.844 456.655 119.265 457.234 118.976C457.812 118.542 458.538 118.397 459.259 118.397C460.127 118.397 460.847 118.542 461.426 118.976C462.004 119.41 462.441 119.844 462.872 120.568C463.309 121.147 463.451 121.871 463.598 122.739H455.067Z" fill="#1C1277"/>
<path d="M489.192 119.554C490.202 119.265 491.07 119.121 491.938 119.121L490.349 112.607C489.482 112.607 488.466 112.751 487.456 113.186C486.441 113.62 485.431 114.054 484.422 114.633C483.406 115.212 482.539 115.791 481.818 116.37L479.504 112.751H475.312V138.083H483.406V122.739C484.274 122.015 485.142 121.436 486.152 120.857C487.309 120.278 488.324 119.844 489.192 119.554Z" fill="#1C1277"/>
<path d="M503.362 122.739C504.23 122.015 505.098 121.436 506.108 120.857C507.123 120.278 508.133 119.844 509.148 119.554C510.158 119.265 511.026 119.121 511.893 119.121L510.305 112.607C509.437 112.607 508.422 112.751 507.412 113.186C506.397 113.62 505.387 114.054 504.372 114.633C503.362 115.212 502.494 115.791 501.774 116.37L499.459 112.751H495.262V138.083H503.362V122.739Z" fill="#1C1277"/>
<path d="M526.063 127.371L520.567 111.738L512.903 113.91L521.724 136.78L521.003 138.517C520.856 139.096 520.277 139.675 519.557 140.254C518.836 140.833 517.968 141.267 517.101 141.702C516.233 142.136 515.218 142.57 514.497 143.004L517.39 149.518C518.978 149.084 520.425 148.505 522.013 147.781C523.46 147.057 524.906 146.044 526.063 144.886C527.22 143.728 528.088 142.57 528.519 141.123L539.802 112.607H531.412L526.063 127.371Z" fill="#1C1277"/>
<path d="M337.941 167.323C335.482 165.875 332.446 165.006 328.831 165.006H313.937V200.471H328.541C332.012 200.471 334.904 199.747 337.362 198.299C339.82 196.852 341.7 194.825 343.146 192.075C344.448 189.325 345.17 186.14 345.17 182.522C345.17 179.192 344.592 176.152 343.29 173.547C342.134 170.941 340.254 168.915 337.941 167.323ZM335.772 189.18C335.048 190.917 334.036 192.075 332.735 192.799C331.433 193.522 329.987 193.957 328.252 193.957H322.179V171.665H328.686C330.566 171.665 332.157 172.099 333.313 172.968C334.47 173.837 335.338 175.139 336.061 176.731C336.639 178.324 337.073 180.35 337.073 182.522C336.784 185.272 336.494 187.443 335.772 189.18Z" fill="#1C1277"/>
<path d="M367.873 176.297C366.137 175.139 363.968 174.56 361.221 174.56C358.618 174.56 356.305 175.139 354.425 176.152C352.4 177.31 350.954 178.758 349.798 180.784C348.641 182.811 348.063 185.272 348.063 188.022C348.063 190.772 348.641 193.088 349.798 195.115C350.954 197.141 352.69 198.589 354.859 199.747C357.027 200.76 359.775 201.339 362.812 201.339C364.258 201.339 365.559 201.195 366.86 200.905C368.162 200.615 369.318 200.326 370.33 199.892C371.343 199.457 372.21 199.023 372.934 198.444L370.62 192.654C369.608 193.233 368.595 193.667 367.439 194.101C366.282 194.536 364.981 194.681 363.39 194.681C361.944 194.681 360.932 194.536 359.92 194.101C359.052 193.667 358.329 193.233 357.751 192.654C357.172 192.075 356.883 191.207 356.594 190.338H372.644V187.877C372.644 185.561 372.21 183.245 371.343 181.363C370.909 179.047 369.608 177.455 367.873 176.297ZM356.738 185.416C356.883 184.548 357.172 183.824 357.461 183.101C357.895 182.522 358.329 181.943 358.907 181.653C359.486 181.219 360.208 181.074 360.932 181.074C361.799 181.074 362.522 181.219 363.101 181.653C363.679 182.087 364.113 182.522 364.547 183.245C364.981 183.824 365.125 184.548 365.269 185.416H356.738Z" fill="#1C1277"/>
<path d="M391.298 186.43C389.996 185.706 388.55 185.127 387.249 184.548C386.381 184.258 385.658 183.969 384.935 183.679C384.212 183.39 383.923 182.956 383.923 182.522C383.923 182.087 384.212 181.653 384.791 181.363C385.369 181.074 385.947 180.929 386.815 180.929C387.827 180.929 388.984 181.074 389.996 181.363C391.008 181.653 392.165 182.087 393.322 182.522L395.635 177.166C394.768 176.442 393.756 176.008 392.599 175.573C391.442 175.139 390.286 174.849 389.273 174.705C388.261 174.56 387.249 174.415 386.526 174.415C383.2 174.415 380.742 175.139 378.717 176.587C376.838 178.034 375.825 180.061 375.825 182.522C375.825 183.969 376.259 185.272 377.127 186.285C377.994 187.298 379.151 188.166 380.452 188.89C381.754 189.614 383.2 190.193 384.501 190.628C385.225 190.772 385.803 191.062 386.381 191.351C386.96 191.641 387.249 191.93 387.538 192.22C387.827 192.509 387.972 192.799 387.972 193.233C387.972 193.522 387.827 193.812 387.538 194.101C387.249 194.391 386.815 194.536 386.381 194.681C385.947 194.825 385.369 194.825 384.935 194.825C384.357 194.825 383.634 194.681 382.766 194.536C381.899 194.391 381.176 194.101 380.308 193.812C379.44 193.522 378.717 193.233 377.994 192.943L375.681 198.154C376.549 198.878 377.561 199.313 378.862 199.747C380.164 200.181 381.32 200.471 382.621 200.615C383.778 200.76 384.791 200.905 385.513 200.905C388.984 200.905 391.587 200.181 393.467 198.733C395.202 197.286 396.214 195.26 396.214 192.799C396.214 191.207 395.78 189.904 394.913 188.89C393.756 188.022 392.599 187.154 391.298 186.43Z" fill="#1C1277"/>
<path d="M403.878 162.69C402.721 162.69 401.564 163.125 400.696 163.993C399.829 164.862 399.395 165.875 399.395 167.178C399.395 168.481 399.829 169.494 400.696 170.362C401.564 171.231 402.576 171.665 403.878 171.665C405.179 171.665 406.191 171.231 407.059 170.362C407.926 169.494 408.36 168.481 408.36 167.178C408.36 166.02 407.926 164.862 407.059 163.993C406.191 163.125 405.179 162.69 403.878 162.69Z" fill="#1C1277"/>
<path d="M408.071 175.284H399.829V200.615H408.071V175.284Z" fill="#1C1277"/>
<path d="M432.076 177.166C431.929 177.021 431.641 176.731 431.496 176.587C430.484 175.863 429.471 175.284 428.46 174.994C427.303 174.56 426.29 174.415 425.134 174.415C422.387 174.415 420.073 174.994 418.193 176.008C416.313 177.021 414.723 178.613 413.711 180.64C412.698 182.666 412.12 185.127 412.12 188.022C412.12 190.772 412.698 193.233 413.711 195.26C414.723 197.286 416.313 198.733 418.193 199.747C420.073 200.76 422.387 201.339 424.844 201.339C426.146 201.339 427.303 201.05 428.46 200.615C428.893 200.471 429.183 200.326 429.616 200.036V201.484C429.616 202.786 429.038 203.945 427.881 204.813C426.724 205.682 425.278 205.971 423.688 205.971C422.531 205.971 421.229 205.827 419.928 205.537C418.627 205.248 417.181 204.668 415.59 203.8L413.132 209.59C413.855 210.024 414.723 210.458 415.735 210.892C416.747 211.327 417.759 211.616 418.916 211.761C419.928 212.05 420.94 212.195 421.953 212.195C422.965 212.34 423.688 212.34 424.122 212.34C426.869 212.34 429.327 211.906 431.351 211.037C433.375 210.169 434.969 208.866 436.121 207.274C437.278 205.682 437.857 203.655 437.857 201.484V175.284H433.665L432.076 177.166ZM428.604 193.812C427.592 194.391 426.58 194.68 425.568 194.68C424.555 194.68 423.543 194.391 422.82 193.812C421.953 193.233 421.374 192.509 421.085 191.496C420.651 190.483 420.507 189.325 420.507 187.877C420.507 186.43 420.651 185.272 421.085 184.258C421.519 183.245 422.097 182.377 422.965 181.798C423.832 181.219 424.7 180.929 425.712 180.929C426.724 180.929 427.736 181.219 428.749 181.798C429.038 181.943 429.327 182.232 429.616 182.377V193.088C429.183 193.378 428.893 193.522 428.604 193.812Z" fill="#1C1277"/>
<path d="M465.044 175.718C463.74 174.849 462.004 174.415 459.695 174.415C458.538 174.415 457.381 174.56 456.224 174.849C455.067 175.139 453.91 175.573 452.752 176.152C451.595 176.731 450.585 177.31 449.718 177.89L448.271 175.139H443.211V200.471H451.306V183.245C451.884 182.956 452.463 182.666 453.184 182.232C453.909 181.943 454.63 181.653 455.209 181.363C455.935 181.074 456.513 180.929 457.234 180.929C458.391 180.929 459.259 181.363 459.695 182.087C460.127 182.811 460.416 183.824 460.416 184.982V200.471H468.658V184.403C468.658 182.522 468.369 180.784 467.79 179.337C467.359 177.89 466.344 176.587 465.044 175.718Z" fill="#1C1277"/>
<path d="M506.255 184.114C505.24 183.101 504.083 182.377 502.783 181.508C501.484 180.784 500.327 179.916 499.023 179.192C498.013 178.613 496.998 178.034 496.13 177.6C495.262 177.166 494.394 176.587 493.821 176.008C493.242 175.429 492.953 174.849 492.953 174.126C492.953 173.258 493.384 172.534 494.11 171.955C494.973 171.376 495.988 171.086 497.287 171.086C498.155 171.086 499.023 171.086 499.749 171.231C500.469 171.376 501.337 171.52 502.063 171.81C502.925 172.099 503.793 172.389 504.809 172.823L507.265 166.888C505.966 166.02 504.372 165.441 502.494 164.862C500.617 164.283 498.881 164.138 497.145 164.138C494.541 164.138 492.227 164.573 490.349 165.441C488.466 166.309 487.02 167.467 486.01 168.915C485 170.362 484.563 172.099 484.563 173.981C484.563 175.429 484.853 176.731 485.579 177.89C486.152 179.047 487.02 180.205 488.035 181.074C489.045 182.087 490.202 182.956 491.507 183.679C492.806 184.403 493.963 185.272 495.12 185.996C496.13 186.575 497.145 187.154 498.013 187.588C498.881 188.167 499.749 188.601 500.327 189.18C500.906 189.759 501.195 190.338 501.195 190.917C501.195 191.496 501.048 192.075 500.616 192.509C500.18 192.943 499.601 193.378 498.881 193.667C498.155 193.957 497.145 194.102 495.84 194.102C494.831 194.102 493.821 193.957 492.806 193.812C491.796 193.522 490.639 193.233 489.771 192.943C488.756 192.509 488.035 192.22 487.309 191.931L485 198.299C485.579 198.734 486.441 199.023 487.309 199.457C488.177 199.747 489.192 200.181 490.202 200.326C491.217 200.616 492.227 200.76 493.242 201.05C494.252 201.195 495.12 201.339 495.988 201.339C498.881 201.339 501.337 200.905 503.362 200.036C505.387 199.168 506.975 198.01 507.991 196.418C509 194.97 509.579 193.233 509.579 191.207C509.579 189.759 509.29 188.456 508.569 187.298C507.843 186.14 507.265 184.982 506.255 184.114Z" fill="#1C1277"/>
<path d="M524.764 190.048L519.268 174.415L511.604 176.587L520.425 199.457L519.699 201.195C519.557 201.773 518.978 202.352 518.258 202.931C517.532 203.51 516.664 203.945 515.796 204.379C514.928 204.813 513.918 205.248 513.193 205.682L516.085 212.195C517.679 211.761 519.126 211.182 520.714 210.458C522.16 209.735 523.607 208.721 524.764 207.563C525.921 206.405 526.789 205.248 527.22 203.8L538.497 175.284H530.113L524.764 190.048Z" fill="#1C1277"/>
<path d="M555.707 186.43C554.403 185.706 552.962 185.127 551.657 184.548C550.789 184.258 550.069 183.969 549.343 183.679C548.623 183.39 548.333 182.956 548.333 182.522C548.333 182.087 548.622 181.653 549.201 181.363C549.78 181.074 550.358 180.929 551.226 180.929C552.236 180.929 553.393 181.074 554.403 181.363C555.418 181.653 556.575 182.087 557.732 182.522L560.047 177.166C559.179 176.442 558.164 176.008 557.007 175.573C555.849 175.139 554.692 174.849 553.682 174.705C552.673 174.56 551.657 174.415 550.937 174.415C547.607 174.415 545.151 175.139 543.126 176.587C541.248 178.034 540.233 180.061 540.233 182.522C540.233 183.969 540.67 185.272 541.538 186.285C542.405 187.298 543.563 188.166 544.862 188.89C546.161 189.614 547.607 190.193 548.912 190.628C549.632 190.772 550.211 191.062 550.789 191.351C551.368 191.641 551.657 191.93 551.947 192.22C552.236 192.509 552.383 192.799 552.383 193.233C552.383 193.522 552.236 193.812 551.947 194.101C551.657 194.391 551.226 194.536 550.789 194.681C550.358 194.825 549.78 194.825 549.343 194.825C548.764 194.825 548.044 194.681 547.176 194.536C546.308 194.391 545.582 194.101 544.72 193.812C543.852 193.522 543.126 193.233 542.405 192.943L540.091 198.154C540.959 198.878 541.969 199.313 543.273 199.747C544.572 200.181 545.73 200.471 547.029 200.615C548.186 200.76 549.201 200.905 549.922 200.905C553.393 200.905 555.997 200.181 557.874 198.733C559.61 197.286 560.625 195.26 560.625 192.799C560.625 191.207 560.189 189.904 559.321 188.89C558.164 188.022 557.007 187.154 555.707 186.43Z" fill="#1C1277"/>
<path d="M578.698 194.391C578.119 194.536 577.688 194.536 577.11 194.536C576.094 194.536 575.226 194.246 574.648 193.522C574.069 192.799 573.78 191.93 573.78 190.772V182.377H580.865L579.418 176.008H573.78V168.336L565.685 169.638V176.152H562.066V182.522H565.685V192.075C565.685 194.101 566.116 195.983 567.132 197.431C568.142 198.878 569.446 199.892 571.034 200.615C572.623 201.339 574.506 201.628 576.673 201.628C577.399 201.628 578.119 201.484 578.84 201.339C579.566 201.195 580.434 200.905 581.012 200.615C581.733 200.326 582.311 200.036 582.601 199.747L580.286 194.101C579.855 194.101 579.277 194.246 578.698 194.391Z" fill="#1C1277"/>
<path d="M604.292 176.297C602.556 175.139 600.389 174.56 597.638 174.56C595.04 174.56 592.726 175.139 590.843 176.152C588.818 177.31 587.371 178.758 586.22 180.784C585.062 182.811 584.484 185.272 584.484 188.022C584.484 190.772 585.062 193.088 586.22 195.115C587.371 197.141 589.107 198.589 591.279 199.747C593.446 200.76 596.192 201.339 599.232 201.339C600.679 201.339 601.978 201.195 603.282 200.905C604.581 200.615 605.739 200.326 606.748 199.892C607.764 199.457 608.631 199.023 609.352 198.444L607.038 192.654C606.028 193.233 605.013 193.667 603.861 194.101C602.704 194.536 601.399 194.681 599.811 194.681C598.364 194.681 597.349 194.536 596.339 194.101C595.471 193.667 594.751 193.233 594.172 192.654C593.594 192.075 593.305 191.207 593.015 190.338H609.063V187.877C609.063 185.561 608.631 183.245 607.764 181.363C607.474 179.047 606.17 177.455 604.292 176.297ZM593.305 185.416C593.446 184.548 593.736 183.824 594.025 183.101C594.462 182.522 594.893 181.943 595.471 181.653C596.05 181.219 596.771 181.074 597.496 181.074C598.364 181.074 599.085 181.219 599.663 181.653C600.242 182.087 600.679 182.522 601.11 183.245C601.547 183.824 601.689 184.548 601.836 185.416H593.305Z" fill="#1C1277"/>
<path d="M653.745 179.047C653.166 177.6 652.298 176.442 651.141 175.718C649.842 174.849 648.248 174.56 646.081 174.56C645.071 174.56 643.914 174.705 642.757 174.994C641.6 175.284 640.443 175.718 639.427 176.297C638.418 176.731 637.55 177.31 636.682 177.89C636.103 177.021 635.525 176.297 634.657 175.718C633.358 174.849 631.764 174.56 629.597 174.56C628.587 174.56 627.572 174.705 626.415 174.994C625.258 175.284 624.1 175.718 623.091 176.297C621.933 176.876 620.924 177.455 620.056 178.034L618.609 175.284H613.544V200.615H621.644V183.245C622.223 182.956 622.801 182.666 623.38 182.232C623.958 181.943 624.679 181.653 625.405 181.363C626.125 181.074 626.704 180.929 627.141 180.929C628.009 180.929 628.587 181.074 629.018 181.363C629.45 181.653 629.739 182.087 629.886 182.811C630.028 183.39 630.028 184.113 630.028 184.837V200.326H638.128V183.969C638.128 183.679 638.128 183.534 638.128 183.39C638.707 183.101 639.285 182.811 639.864 182.377C640.443 182.087 641.163 181.798 641.742 181.508C642.32 181.219 643.046 181.074 643.625 181.074C644.345 181.074 644.924 181.219 645.361 181.508C645.792 181.798 646.081 182.232 646.223 182.956C646.37 183.534 646.512 184.258 646.512 184.982V200.471H654.612V183.969C654.612 182.087 654.323 180.495 653.745 179.047Z" fill="#1C1277"/>
<path d="M205.198 176.008C204.042 177.166 202.162 177.166 201.005 176.008L183.364 158.203C182.207 157.045 182.207 155.164 183.364 154.006C184.521 152.847 186.4 152.847 187.558 154.006L205.343 171.81C206.355 172.968 206.355 174.849 205.198 176.008Z" fill="white"/>
<path d="M228.479 176.008C229.636 177.166 231.516 177.166 232.672 176.008L248.434 160.23C249.591 159.072 249.591 157.19 248.434 156.032C247.277 154.874 245.397 154.874 244.24 156.032L228.479 171.81C227.322 172.968 227.322 174.849 228.479 176.008Z" fill="white"/>
<path d="M267.087 130.121C265.352 130.121 264.05 128.818 264.05 127.082V111.159C264.05 107.83 261.303 105.08 257.977 105.08H177.002C173.676 105.08 170.928 107.83 170.928 111.159V127.082C170.928 128.818 169.627 130.121 167.892 130.121C166.157 130.121 165 128.818 165 127.082V111.159C165 104.501 170.495 99 177.146 99H258.122C264.773 99 270.268 104.501 270.268 111.159V127.082C270.124 128.818 268.822 130.121 267.087 130.121Z" fill="white"/>
<path d="M189.293 198.154H177.146C173.821 198.154 171.073 195.404 171.073 192.075V172.679C171.073 170.941 169.772 169.638 168.036 169.638C166.301 169.638 165 170.941 165 172.679V192.075C165 198.734 170.495 204.234 177.146 204.234H189.293C191.028 204.234 192.329 202.931 192.329 201.195C192.329 199.457 191.028 198.154 189.293 198.154Z" fill="white"/>
<path d="M267.087 169.638C265.352 169.638 264.05 170.941 264.05 172.678V192.075C264.05 195.404 261.303 198.154 257.977 198.154H233.396V174.126C233.396 172.534 232.094 171.231 230.503 171.231C228.913 171.231 227.611 172.534 227.611 174.126V198.154H219.659V133.161C219.659 131.569 218.357 130.266 216.766 130.266C215.176 130.266 213.874 131.569 213.874 133.161V198.154H206.355V174.126C206.355 172.534 205.054 171.231 203.463 171.231C201.873 171.231 200.571 172.534 200.571 174.126V200.615C200.571 200.76 200.571 200.76 200.571 200.905C200.571 201.05 200.571 201.05 200.571 201.194C200.571 202.931 201.873 204.234 203.608 204.234H258.411C265.063 204.234 270.557 198.733 270.557 192.075V172.678C270.124 170.941 268.822 169.638 267.087 169.638Z" fill="white"/>
<path d="M252.916 134.609C244.24 134.609 237.155 141.702 237.155 150.387C237.155 159.072 244.24 166.164 252.916 166.164C261.592 166.164 268.678 159.072 268.678 150.387C268.678 141.702 261.737 134.609 252.916 134.609ZM260.146 150.676C259.568 151.111 258.7 150.966 258.122 150.387L257.833 150.097C256.676 148.939 254.941 148.939 253.928 150.097L253.495 150.532C252.916 151.111 251.76 151.111 251.181 150.387C250.747 149.808 250.892 148.939 251.47 148.36L251.76 148.071C252.916 146.912 252.916 145.176 251.76 144.162L251.326 143.728C250.747 143.149 250.747 141.991 251.47 141.412C252.048 140.978 252.916 141.123 253.495 141.702L253.784 141.991C254.941 143.149 256.676 143.149 257.688 141.991L258.122 141.557C258.7 140.978 259.857 140.978 260.435 141.702C260.869 142.28 260.724 143.149 260.146 143.728L259.857 143.873C258.7 145.031 258.7 146.768 259.857 147.781L260.291 148.215C261.014 148.939 260.869 150.097 260.146 150.676Z" fill="#1C1277"/>
<path d="M182.641 134.609C173.965 134.609 166.88 141.702 166.88 150.387C166.88 159.072 173.965 166.164 182.641 166.164C191.317 166.164 198.402 159.072 198.402 150.387C198.402 141.702 191.317 134.609 182.641 134.609ZM189.726 150.676C189.148 151.111 188.28 150.966 187.702 150.387L187.413 150.097C186.256 148.939 184.521 148.939 183.509 150.097L183.075 150.532C182.497 151.111 181.339 151.111 180.761 150.387C180.327 149.808 180.472 148.939 181.051 148.36L181.339 148.071C182.497 146.912 182.497 145.176 181.339 144.162L180.906 143.728C180.327 143.149 180.327 141.991 181.051 141.412C181.629 140.978 182.497 141.123 183.075 141.702L183.364 141.991C184.521 143.149 186.256 143.149 187.268 141.991L187.702 141.557C188.28 140.978 189.437 140.978 190.015 141.702C190.449 142.28 190.305 143.149 189.726 143.728L189.437 143.873C188.28 145.031 188.28 146.768 189.437 147.781L189.871 148.215C190.594 148.939 190.449 150.097 189.726 150.676Z" fill="#1C1277"/>
<path d="M216.622 111.159C207.946 111.159 200.861 118.252 200.861 126.937C200.861 135.622 207.946 142.715 216.622 142.715C225.298 142.715 232.383 135.622 232.383 126.937C232.383 118.252 225.298 111.159 216.622 111.159ZM223.707 127.227C223.129 127.661 222.261 127.516 221.683 126.937L221.394 126.648C220.237 125.489 218.501 125.489 217.489 126.648L217.056 127.082C216.477 127.661 215.32 127.661 214.742 126.937C214.308 126.358 214.453 125.489 215.031 124.91L215.32 124.621C216.477 123.463 216.477 121.726 215.32 120.713L214.886 120.278C214.308 119.699 214.308 118.542 215.031 117.963C215.61 117.528 216.477 117.673 217.056 118.252L217.345 118.542C218.501 119.699 220.237 119.699 221.249 118.542L221.683 118.107C222.261 117.528 223.418 117.528 223.996 118.252C224.43 118.831 224.286 119.699 223.707 120.278L223.418 120.568C222.261 121.726 222.261 123.463 223.418 124.476L223.852 124.91C224.575 125.489 224.575 126.648 223.707 127.227Z" fill="#1C1277"/>
</g>
<defs>
<clipPath id="clip0_1303_9855">
<rect width="820" height="312" fill="white"/>
</clipPath>
</defs>
</svg>
